<svg id="Layer_1" enable-background="new 0 0 66 66" height="512" viewBox="0 0 66 66" width="512" xmlns="http://www.w3.org/2000/svg"><g><path d="m14.6 41.02c.35-.22.46-.68.24-1.03s-.68-.46-1.03-.24c-.7.44-1.33.44-2.03 0-.35-.22-.81-.12-1.04.23-.22.35-.12.81.23 1.03.59.37 1.2.56 1.81.56s1.23-.18 1.82-.55z"/><circle cx="10.81" cy="36.06" r=".75"/><circle cx="14.76" cy="36.06" r=".75"/><path d="m55.03 41.02c.35-.22.46-.68.24-1.03s-.68-.46-1.03-.24c-.7.44-1.33.44-2.03 0-.35-.22-.81-.12-1.04.23-.22.35-.12.81.23 1.03.59.37 1.2.56 1.81.56s1.22-.18 1.82-.55z"/><circle cx="51.24" cy="36.06" r=".75"/><circle cx="55.19" cy="36.06" r=".75"/><path d="m19.23 23.93h2.18c.41 0 .75-.34.75-.75s-.34-.75-.75-.75h-2.18c-.41 0-.75.34-.75.75s.34.75.75.75z"/><path d="m45.33 23.18c0 .41.34.75.75.75h2.18c.41 0 .75-.34.75-.75s-.34-.75-.75-.75h-2.18c-.41 0-.75.34-.75.75z"/><path d="m44.63 19.22c.11.3.4.49.71.49.08 0 .17-.01.26-.05l2.05-.74c.39-.14.59-.57.45-.96s-.57-.59-.96-.45l-2.05.74c-.4.15-.6.58-.46.97z"/><path d="m43.19 16c.17 0 .34-.06.48-.18l1.67-1.4c.32-.27.36-.74.09-1.06s-.74-.36-1.06-.09l-1.67 1.4c-.32.27-.36.74-.09 1.06.16.18.37.27.58.27z"/><path d="m39.54 13.15c.12.07.25.1.37.1.26 0 .51-.13.65-.38l1.09-1.88c.21-.36.08-.82-.27-1.02-.36-.21-.82-.08-1.02.27l-1.09 1.88c-.21.37-.09.82.27 1.03z"/><path d="m35.76 11.78c.04.01.09.01.13.01.36 0 .67-.26.74-.62l.37-2.15c.07-.41-.2-.8-.61-.87s-.8.2-.87.61l-.38 2.14c-.06.41.21.8.62.88z"/><path d="m31.6 11.79c.04 0 .09 0 .13-.01.41-.07.68-.46.61-.87l-.38-2.14c-.07-.41-.46-.68-.87-.61s-.68.46-.61.87l.38 2.14c.07.36.39.62.74.62z"/><path d="m26.93 12.88c.14.24.39.38.65.38.13 0 .26-.03.37-.1.36-.21.48-.67.27-1.02l-1.09-1.88c-.21-.36-.66-.48-1.02-.27s-.48.67-.27 1.02z"/><path d="m23.81 15.83c.15.12.32.17.49.17.21 0 .43-.09.57-.27.27-.32.23-.79-.09-1.06l-1.67-1.4c-.32-.27-.79-.23-1.06.09s-.23.79.09 1.06z"/><path d="m19.85 18.92 2.04.74c.08.03.17.05.26.05.31 0 .59-.19.71-.49.14-.39-.06-.82-.45-.96l-2.04-.74c-.39-.14-.82.06-.96.45-.15.38.05.81.44.95z"/><path d="m59.06 44.06h-2.3v-.19c1.76-1.02 3.04-2.78 3.39-4.89.05-.24.08-.5.1-.77 1.71-1.09 2.77-2.97 2.77-5.02v-.9c0-4.27-3.15-7.75-7.02-7.75h-3.73c-1.86 0-3.45 1.25-4.12 3.02-2.64.23-4.73 2.67-4.73 5.63 0 2.05 1.06 3.93 2.78 5.03.16 2.41 1.51 4.48 3.48 5.64v.21h-2.3c-.05 0-.09.02-.14.03-1.29-1.87-3.45-3.1-5.9-3.1h-3.21v-.37c1.2-.02 2.17-.99 2.17-2.2 0-1.2-.97-2.18-2.16-2.2.06-1.73.88-3.41 2.29-4.63.38-.33.75-.7 1.07-1.08.27-.32.23-.79-.08-1.06-.32-.27-.79-.23-1.06.08-.28.33-.58.64-.91.92-1.73 1.51-2.74 3.6-2.81 5.76h-5.62c-.1-2.15-1.13-4.21-2.89-5.7-2.27-1.93-3.39-4.86-2.98-7.84.53-3.86 3.73-6.97 7.6-7.4 2.51-.28 4.92.49 6.78 2.16 1.84 1.65 2.89 4 2.89 6.47 0 1.32-.29 2.59-.86 3.77-.18.37-.02.82.35 1 .38.18.82.02 1-.35.67-1.38 1.01-2.87 1.01-4.42 0-2.89-1.24-5.66-3.39-7.59-2.16-1.93-5.04-2.85-7.95-2.53-4.55.5-8.3 4.16-8.92 8.68-.48 3.49.83 6.92 3.49 9.19 1.42 1.2 2.26 2.85 2.36 4.56-1.19.02-2.16 1-2.16 2.2 0 1.15.89 2.08 2.01 2.18v.39h-3.21c-2.53 0-4.75 1.32-6.03 3.3-.49-.14-.99-.23-1.5-.23h-2.3v-.19c1.76-1.02 3.04-2.78 3.39-4.89.05-.24.08-.5.1-.77 1.71-1.09 2.77-2.97 2.77-5.02v-.9c0-4.27-3.15-7.75-7.02-7.75h-3.73c-1.86 0-3.45 1.25-4.12 3.02-2.64.23-4.73 2.67-4.73 5.63 0 2.05 1.06 3.93 2.78 5.03.16 2.41 1.51 4.48 3.48 5.64v.21h-2.3c-3.14 0-5.69 2.55-5.69 5.69v7.35c0 .41.34.75.75.75h14.74c.41 0 .75-.34.75-.75s-.34-.75-.75-.75h-13.99v-6.6c0-2.31 1.88-4.19 4.19-4.19h2.34c.18 1.78 1.68 3.19 3.5 3.19 1.83 0 3.33-1.4 3.51-3.19h2.34c.28 0 .55.03.82.08-.29.78-.46 1.63-.46 2.51v8.95c0 .41.34.75.75.75h28.02c.41 0 .75-.34.75-.75v-8.95c0-.92-.18-1.79-.49-2.6h1.69c.18 1.78 1.68 3.19 3.5 3.19 1.83 0 3.33-1.4 3.51-3.19h2.34c2.31 0 4.19 1.88 4.19 4.19v6.6h-12.5c-.41 0-.75.34-.75.75s.34.75.75.75h13.25c.41 0 .75-.34.75-.75v-7.35c0-3.13-2.55-5.69-5.69-5.69zm-54.58-10.87c0-1.99 1.24-3.67 2.89-4.06v.3c0 .41.34.75.75.75s.75-.34.75-.75c0-1.87 1.33-3.39 2.96-3.39h3.73c3.05 0 5.52 2.8 5.52 6.25v.9c0 1.17-.46 2.27-1.25 3.09v-3.27c0-.25-.12-.48-.33-.62-.2-.14-.46-.17-.69-.08-.61.24-1.26.35-1.95.35-2.09 0-4-1.15-4.98-3-.13-.24-.38-.4-.65-.4-.3-.01-.53.14-.66.38-.17.3-.37.56-.61.8-.88.93-2.12 1.42-3.4 1.27-.21-.02-.43.04-.58.19-.16.14-.25.35-.25.56v3.82c-.78-.81-1.25-1.91-1.25-3.09zm2.76 4.57v-4.52c1.46-.07 2.81-.69 3.81-1.74.05-.05.1-.1.15-.15 1.33 1.76 3.42 2.82 5.68 2.82.5 0 .99-.05 1.47-.15v3.75.02.01c0 .33-.03.61-.09.91-.45 2.68-2.75 4.62-5.47 4.62-3.07-.01-5.55-2.5-5.55-5.57zm7.59 7.44c0 1.13-.92 2.05-2.05 2.05s-2.04-.92-2.04-2.05v-.68c.65.2 1.33.3 2.04.3s1.4-.11 2.05-.31zm16.04-4.58h2.88 2.88v1.62c0 1.59-1.29 2.89-2.89 2.89-1.58 0-2.87-1.29-2.87-2.89zm-2.02-2.2c0-.39.31-.7.7-.7h8.54c.39 0 .7.31.7.7s-.31.7-.7.7h-4.35-3.63-.56c-.38 0-.7-.31-.7-.7zm18.15 17.94h-26.51v-8.2c0-3.13 2.54-5.67 5.67-5.67h3.24c.13 2.3 2.02 4.14 4.35 4.14s4.23-1.84 4.36-4.14h3.23c3.13 0 5.67 2.54 5.67 5.67v8.2zm-2.09-23.17c0-1.99 1.24-3.67 2.89-4.06v.3c0 .41.34.75.75.75s.75-.34.75-.75c0-1.87 1.33-3.39 2.96-3.39h3.73c3.05 0 5.52 2.8 5.52 6.25v.9c0 1.17-.46 2.27-1.25 3.09v-3.27c0-.25-.12-.48-.33-.62-.2-.14-.46-.17-.69-.08-.61.24-1.26.35-1.95.35-2.09 0-4-1.15-4.98-3-.13-.24-.38-.4-.65-.4-.29-.01-.53.14-.66.38-.17.3-.37.56-.61.8-.88.93-2.12 1.42-3.4 1.27-.21-.02-.43.04-.58.19-.16.14-.25.35-.25.56v3.82c-.79-.81-1.25-1.91-1.25-3.09zm2.75 4.57v-4.52c1.46-.07 2.81-.69 3.81-1.74.05-.05.1-.1.15-.15 1.33 1.76 3.42 2.82 5.68 2.82.5 0 .99-.05 1.47-.15v3.75.02.01c0 .33-.03.61-.09.91-.45 2.68-2.75 4.62-5.47 4.62-3.06-.01-5.55-2.5-5.55-5.57zm7.6 7.44c0 1.13-.92 2.05-2.05 2.05s-2.04-.92-2.04-2.05v-.68c.65.2 1.33.3 2.04.3s1.4-.11 2.05-.31z"/></g></svg>