<svg height="511pt" viewBox="0 0 511.99966 511" width="511pt" xmlns="http://www.w3.org/2000/svg"><path d="m504.40625 256.472656c0 137.1875-111.214844 248.398438-248.402344 248.398438-137.183594 0-248.398437-111.210938-248.398437-248.398438s111.214843-248.398437 248.398437-248.398437c137.1875 0 248.402344 111.210937 248.402344 248.398437zm0 0" fill="#1ed688"/><path d="m460.984375 256.472656c0 107.921875-83.847656 196.648438-189.832031 204.421875-5 .367188-10.046875.558594-15.148438.558594-113.019531 0-204.976562-91.960937-204.976562-204.980469 0-113.023437 91.957031-204.980468 204.976562-204.980468 5.101563 0 10.148438.191406 15.148438.554687 105.984375 7.777344 189.832031 96.503906 189.832031 204.425781zm0 0" fill="#d2d2d7"/><path d="m460.984375 256.472656c0 107.921875-83.847656 196.648438-189.832031 204.421875-105.984375-7.773437-189.832032-96.5-189.832032-204.421875s83.847657-196.648437 189.832032-204.425781c105.984375 7.777344 189.832031 96.503906 189.832031 204.425781zm0 0" fill="#ebebf0"/><g fill="#f44545"><path d="m256.003906 137.871094c-8.050781 0-14.640625-6.589844-14.640625-14.644532v-29.828124c0-8.054688 6.589844-14.644532 14.640625-14.644532 8.054688 0 14.644532 6.589844 14.644532 14.644532v29.828124c0 8.054688-6.589844 14.644532-14.644532 14.644532zm0 0"/><path d="m256.003906 436.839844c-8.050781 0-14.640625-6.585938-14.640625-14.640625v-29.828125c0-8.054688 6.589844-14.644532 14.640625-14.644532 8.054688 0 14.644532 6.589844 14.644532 14.644532v29.828125c0 8.054687-6.589844 14.640625-14.644532 14.640625zm0 0"/><path d="m375.933594 257.800781c0-8.054687 6.589844-14.644531 14.644531-14.644531h29.828125c8.054688 0 14.640625 6.589844 14.640625 14.644531 0 8.050781-6.585937 14.640625-14.640625 14.640625h-29.828125c-8.054687 0-14.644531-6.589844-14.644531-14.640625zm0 0"/><path d="m76.964844 257.800781c0-8.054687 6.585937-14.644531 14.640625-14.644531h29.828125c8.054687 0 14.644531 6.589844 14.644531 14.644531 0 8.050781-6.589844 14.640625-14.644531 14.640625h-29.828125c-8.054688 0-14.640625-6.589844-14.640625-14.640625zm0 0"/></g><path d="m256.015625 269.097656c-4.332031 0-8.519531-2.234375-10.863281-6.183594l-50.398438-84.945312c-3.558594-5.996094-1.582031-13.742188 4.414063-17.296875 5.992187-3.558594 13.738281-1.582031 17.292969 4.414063l44.480468 74.96875 36.011719-17.449219c6.273437-3.039063 13.820313-.417969 16.859375 5.855469 3.039062 6.273437.417969 13.824218-5.855469 16.863281l-46.449219 22.503906c-1.765624.859375-3.644531 1.269531-5.492187 1.269531zm0 0" fill="#169b62"/><path d="m455.730469 96.363281c-2.617188-3.261719-7.382813-3.785156-10.644531-1.167969-3.261719 2.621094-3.785157 7.386719-1.164063 10.648438 34.613281 43.125 52.910156 95.210938 52.910156 150.628906 0 132.792969-108.035156 240.828125-240.828125 240.828125-92.164062 0-174.878906-51.324219-215.867187-133.945312-1.859375-3.746094-6.402344-5.273438-10.152344-3.417969-3.746094 1.859375-5.277344 6.402344-3.417969 10.152344 20.878906 42.082031 52.933594 77.632812 92.695313 102.808594 40.867187 25.871093 88.152343 39.546874 136.742187 39.546874 68.375 0 132.652344-26.625 181-74.972656 94.269532-94.269531 98.703125-241.472656 18.726563-341.109375zm0 0"/><path d="m28.730469 336.324219c-54.84375-156.089844 61.371093-320.679688 227.273437-320.679688 63.226563 0 122.957032 24.316407 168.195313 68.464844 2.992187 2.921875 7.785156 2.863281 10.707031-.128906 2.921875-2.992188 2.863281-7.789063-.128906-10.707031-48.082032-46.929688-111.570313-72.773438-178.773438-72.773438-68.371094 0-132.652344 26.625-180.996094 74.972656-73.046874 73.046875-91.648437 177.40625-60.566406 265.875 1.386719 3.9375 5.703125 6.019532 9.65625 4.632813 3.945313-1.386719 6.019532-5.710938 4.632813-9.65625zm0 0"/><path d="m279.148438 45.171875c-125.757813-13.679687-235.695313 85.027344-235.695313 211.300781 0 117.203125 95.351563 212.550782 212.550781 212.550782 117.203125 0 212.554688-95.347657 212.554688-212.550782 0-96.519531-65.199219-181.066406-158.554688-205.601562-4.042968-1.066406-8.1875 1.351562-9.25 5.398437-1.0625 4.042969 1.355469 8.183594 5.402344 9.25 86.699219 22.785157 147.253906 101.308594 147.257812 190.953125 0 108.851563-88.558593 197.40625-197.410156 197.40625-108.847656 0-197.40625-88.554687-197.40625-197.40625 0-117.207031 102.003906-208.960937 218.914063-196.246094 4.15625.453126 7.894531-2.550781 8.347656-6.707031.453125-4.160156-2.554687-7.898437-6.710937-8.347656zm0 0"/><path d="m278.21875 123.226562v-29.828124c0-12.25-9.964844-22.214844-22.214844-22.214844-12.246094 0-22.210937 9.964844-22.210937 22.214844v29.828124c0 12.25 9.964843 22.214844 22.210937 22.214844 12.25 0 22.214844-9.964844 22.214844-22.214844zm-29.28125 0v-29.828124c0-3.898438 3.171875-7.070313 7.066406-7.070313 3.898438 0 7.070313 3.171875 7.070313 7.070313v29.828124c0 3.898438-3.171875 7.070313-7.070313 7.070313-3.894531 0-7.066406-3.171875-7.066406-7.070313zm0 0"/><path d="m233.792969 392.371094v29.828125c0 12.25 9.964843 22.214843 22.210937 22.214843 12.25 0 22.214844-9.964843 22.214844-22.214843v-29.828125c0-12.25-9.964844-22.214844-22.214844-22.214844-12.246094 0-22.210937 9.964844-22.210937 22.214844zm29.28125 0v29.828125c0 3.898437-3.171875 7.070312-7.070313 7.070312-3.894531 0-7.066406-3.171875-7.066406-7.070312v-29.828125c0-3.898438 3.171875-7.070313 7.066406-7.070313 3.898438 0 7.070313 3.171875 7.070313 7.070313zm0 0"/><path d="m293.648438 215.792969-29.746094 14.414062-40.925782-68.984375c-3.621093-6.101562-10.28125-9.890625-17.382812-9.890625-15.523438 0-25.355469 17.019531-17.355469 30.5l46.554688 78.46875-84.671875 50.851563c-6.566406 3.945312-3.75 14.070312 3.90625 14.070312 3.972656 0 .210937.664063 89.78125-52.671875 3.46875 2.621094 7.75 4.117188 12.203125 4.117188 8 0 8.582031-2.589844 55.246093-24.527344 6.921876-3.351563 11.394532-10.488281 11.394532-18.183594 0-14.78125-15.558594-24.675781-29.003906-18.164062zm11.007812 22.71875c-48.628906 23.371093-46.546875 23.011719-48.640625 23.011719-1.78125 0-3.445313-.949219-4.351563-2.472657l-50.398437-84.945312c-2.015625-3.394531.476563-7.628907 4.328125-7.628907 1.808594 0 3.4375.925782 4.355469 2.472657l44.480469 74.96875c2.007812 3.386719 6.273437 4.667969 9.816406 2.953125 37.585937-18.023438 36.042968-17.957032 38.203125-17.957032 5.347656 0 7.019531 7.261719 2.207031 9.597657zm0 0"/><path d="m187.089844 137.105469c3.621094-2.089844 4.863281-6.722657 2.773437-10.34375l-12.246093-21.207031c-2.089844-3.621094-6.722657-4.863282-10.34375-2.769532-3.621094 2.089844-4.863282 6.722656-2.769532 10.34375l12.242188 21.207032c2.097656 3.632812 6.730468 4.855468 10.34375 2.769531zm0 0"/><path d="m130.074219 191.34375c7.730469 0 10.484375-10.269531 3.792969-14.132812l-21.203126-12.242188c-3.621093-2.09375-8.253906-.851562-10.34375 2.769531-2.09375 3.625-.851562 8.253907 2.769532 10.347657 21.382812 11.960937 21.445312 13.257812 24.984375 13.257812zm0 0"/><path d="m126.296875 322.617188-21.207031 12.242187c-6.691406 3.863281-3.933594 14.132813 3.792968 14.132813 3.539063 0 3.597657-1.292969 24.984376-13.257813 3.625-2.09375 4.863281-6.722656 2.773437-10.34375-2.09375-3.625-6.722656-4.867187-10.34375-2.773437zm0 0"/><path d="m176.746094 378.609375-12.242188 21.207031c-2.09375 3.621094-.851562 8.253906 2.769532 10.34375 3.609374 2.082032 8.246093.863282 10.34375-2.773437l12.246093-21.203125c2.089844-3.621094.847657-8.253906-2.773437-10.34375-3.621094-2.09375-8.253906-.851563-10.34375 2.769531zm0 0"/><path d="m335.265625 378.609375c-2.089844-3.621094-6.722656-4.863281-10.34375-2.769531-3.621094 2.089844-4.863281 6.722656-2.773437 10.34375l12.246093 21.203125c2.097657 3.640625 6.738281 4.855469 10.34375 2.773437 3.621094-2.089844 4.863281-6.722656 2.769531-10.34375zm0 0"/><path d="m385.714844 322.617188c-3.621094-2.09375-8.253906-.851563-10.34375 2.769531-2.089844 3.621093-.851563 8.253906 2.773437 10.347656 21.382813 11.960937 21.445313 13.257813 24.984375 13.257813 7.730469 0 10.484375-10.273438 3.792969-14.132813zm0 0"/><path d="m385.714844 190.328125 21.207031-12.242187c3.621094-2.09375 4.863281-6.722657 2.773437-10.347657-2.09375-3.621093-6.726562-4.859375-10.347656-2.769531l-21.203125 12.242188c-3.625 2.09375-4.863281 6.722656-2.773437 10.34375 2.101562 3.640624 6.742187 4.855468 10.34375 2.773437zm0 0"/><path d="m344.738281 102.785156c-3.625-2.09375-8.257812-.851562-10.34375 2.769532l-12.246093 21.207031c-2.929688 5.074219.785156 11.359375 6.550781 11.359375 2.617187 0 5.164062-1.359375 6.566406-3.785156l12.242187-21.207032c2.09375-3.621094.851563-8.253906-2.769531-10.34375zm0 0"/><path d="m390.578125 280.011719h29.828125c12.25 0 22.214844-9.964844 22.214844-22.210938 0-12.25-9.964844-22.214843-22.214844-22.214843h-29.828125c-12.25 0-22.214844 9.964843-22.214844 22.214843 0 12.246094 9.964844 22.210938 22.214844 22.210938zm0-29.28125h29.828125c3.898438 0 7.070312 3.171875 7.070312 7.070312 0 3.894531-3.171874 7.066407-7.070312 7.066407h-29.828125c-3.898437 0-7.070313-3.171876-7.070313-7.066407 0-3.898437 3.171876-7.070312 7.070313-7.070312zm0 0"/><path d="m121.433594 235.585938h-29.828125c-12.25 0-22.214844 9.964843-22.214844 22.214843 0 12.246094 9.964844 22.210938 22.214844 22.210938h29.828125c12.25 0 22.214844-9.964844 22.214844-22.210938 0-12.25-9.964844-22.214843-22.214844-22.214843zm0 29.28125h-29.828125c-3.898438 0-7.070313-3.171876-7.070313-7.066407 0-3.898437 3.171875-7.070312 7.070313-7.070312h29.828125c3.898437 0 7.070312 3.171875 7.070312 7.070312 0 3.894531-3.171875 7.066407-7.070312 7.066407zm0 0"/></svg>