<svg id="Layer_1" enable-background="new 0 0 512 512" viewBox="0 0 512 512" xmlns="http://www.w3.org/2000/svg"><g clip-rule="evenodd" fill-rule="evenodd"><g><g><path d="m110.32 29.851h32.14c7.605 0 13.828 6.222 13.828 13.827v68.222c0 7.605-6.222 13.827-13.828 13.827h-32.14c-7.605 0-13.828-6.222-13.828-13.827v-68.222c0-7.605 6.222-13.827 13.828-13.827z" fill="#837683"/><path d="m125.174 29.85h17.285c7.606 0 13.827 6.222 13.827 13.828v68.221c0 7.605-6.222 13.827-13.827 13.827h-17.285c7.606 0 13.828-6.222 13.828-13.827v-68.221c0-7.606-6.222-13.828-13.828-13.828z" fill="#685e68"/><path d="m450.411 148.082v266.605h-392.19v-266.605h-35.757c-6.941 0-8.99-9.524-2.664-12.379l234.518-105.852 234.516 105.853c6.327 2.855 4.276 12.379-2.664 12.379h-35.759z" fill="#f1ba84"/><path d="m450.411 148.082v266.605h-24.399v-266.605zm-211.499-111.279 219.112 98.9c6.327 2.855 4.276 12.379-2.665 12.379h30.81c6.94 0 8.992-9.524 2.665-12.379l-234.516-105.852z" fill="#e3a76f"/><path d="m184.081 228.227h140.473v197.398h-140.473z" fill="#d8ecfe"/><path d="m184.081 228.227h20.001v197.398h-20.001z" fill="#c4e2ff"/><path d="m33.559 395.035h441.516c6.655 0 12.099 5.445 12.099 12.099v25.525c0 6.655-5.445 12.099-12.099 12.099h-441.516c-6.655 0-12.099-5.444-12.099-12.099v-25.525c0-6.654 5.444-12.099 12.099-12.099z" fill="#837683"/><path d="m469.889 395.035h5.186c6.655 0 12.099 5.444 12.099 12.099v25.525c0 6.655-5.444 12.099-12.099 12.099h-441.516c-6.655 0-12.099-5.444-12.099-12.099v-5.186h436.33c6.655 0 12.099-5.444 12.099-12.099z" fill="#685e68"/></g><g><path d="m352.251 318.29c-6.342 9.046-13.803 17.253-22.179 24.418l60.308 59.116 22.959-23.661z" fill="#a79ba7"/><path d="m352.657 317.884c-1.186 3.89-3.396 6.846-6.565 8.803l59.909 59.516 7.337-8.039z" fill="#837683"/><path d="m466.747 478.558 25.911-26.704c4.551-4.69 4.436-12.248-.253-16.799l-71.768-69.642c-4.689-4.551-12.25-4.437-16.8.252l-25.911 26.704c-4.55 4.689-4.436 12.25.253 16.8l71.768 69.641c4.689 4.549 12.249 4.437 16.8-.252z" fill="#f1ba84"/><path d="m410.02 365.413 71.768 69.642c4.689 4.551 4.804 12.109.253 16.799l-25.911 26.704c-.958.987-2.049 1.771-3.218 2.352 4.507 2.24 10.155 1.441 13.836-2.352l25.911-26.703c4.551-4.69 4.436-12.248-.253-16.799l-71.768-69.641c-3.702-3.593-9.194-4.278-13.582-2.1 1.065.528 2.067 1.228 2.964 2.098z" fill="#e3a76f"/><ellipse cx="254.316" cy="252.5" fill="#9facba" rx="130.688" ry="130.688" transform="matrix(.707 -.707 .707 .707 -104.057 253.784)"/><path d="m254.316 121.812c72.177 0 130.688 58.511 130.688 130.688s-58.511 130.688-130.688 130.688c-2.127 0-4.242-.055-6.344-.156 69.229-3.31 124.344-60.483 124.344-130.532 0-70.05-55.114-127.223-124.344-130.532 2.102-.101 4.217-.156 6.344-.156z" fill="#8d9ca8"/></g><g><circle cx="254.315" cy="252.5" fill="#eceff1" r="94.589"/><path d="m176.542 252.5c0 19.349 5.81 37.341 15.78 52.327 3.848 5.784 8.315 11.12 13.308 15.913 15.103 14.501 35.009 24.035 57.094 25.981-2.77.244-5.575.369-8.409.369-4.596 0-9.116-.328-13.537-.961-.57-.082-1.139-.169-1.706-.26-44.993-7.289-79.346-46.316-79.346-93.368 0-52.241 42.349-94.589 94.589-94.589 2.834 0 5.638.125 8.408.369-48.301 4.253-86.181 44.812-86.181 94.219z" fill="#d1d1d6"/><path d="m254.315 261.622c34.074 0 62.125 25.818 65.678 58.948-17.014 16.419-40.166 26.519-65.678 26.519-4.596 0-9.116-.328-13.536-.961-20.117-2.883-38.189-12.099-52.137-25.56 3.546-33.138 31.594-58.946 65.673-58.946z" fill="#8ac9fe"/><path d="m262.721 346.72c-2.77.244-5.573.369-8.406.369-4.596 0-9.115-.328-13.537-.961-20.117-2.884-38.189-12.099-52.137-25.56.586-5.473 1.844-10.745 3.684-15.736 3.847 5.782 8.314 11.116 13.304 15.908 15.103 14.5 35.008 24.034 57.092 25.98z" fill="#60b7ff"/><path d="m262.722 262.152c-39.319 4.997-55.164 34.748-58.807 70.401-5.499-3.47-10.616-7.491-15.273-11.986 3.547-33.137 31.595-58.946 65.673-58.946 2.848.001 5.654.181 8.407.531z" fill="#60b7ff"/><path d="m205.631 320.742c-.737 3.845-1.306 7.79-1.717 11.812-5.499-3.47-10.616-7.492-15.273-11.987.586-5.473 1.844-10.745 3.684-15.736 3.847 5.782 8.314 11.116 13.304 15.908z" fill="#41a8fc"/><ellipse cx="254.314" cy="228.225" fill="#f6dccd" rx="33.397" ry="33.397" transform="matrix(.987 -.16 .16 .987 -33.274 43.684)"/><path d="m229.326 228.225c0 17.021 12.733 31.067 29.193 33.135-1.377.173-2.78.262-4.204.262-18.445 0-33.397-14.952-33.397-33.397 0-18.444 14.952-33.397 33.397-33.397 1.424 0 2.827.089 4.204.262-16.46 2.067-29.193 16.114-29.193 33.135z" fill="#f1cbbc"/></g></g><path d="m197.165 317.488c4.844-27.55 28.74-47.87 57.149-47.87s52.304 20.32 57.148 47.87c-15.259 13.44-35.266 21.602-57.148 21.602-21.881 0-41.888-8.161-57.149-21.602zm57.149-63.868c-14.005 0-25.397-11.39-25.397-25.391 0-14.009 11.392-25.399 25.397-25.399s25.397 11.39 25.397 25.399c0 14.001-11.392 25.391-25.397 25.391zm0-87.712c-47.745 0-86.589 38.85-86.589 86.59 0 19.01 6.166 36.611 16.596 50.912 7.021-20.401 22.591-36.531 42.298-44.452-8.407-7.58-13.702-18.549-13.702-30.73 0-22.83 18.571-41.399 41.397-41.399 22.827 0 41.397 18.57 41.397 41.399 0 12.181-5.296 23.15-13.701 30.73 19.705 7.92 35.277 24.051 42.298 44.452 10.428-14.301 16.594-31.901 16.594-50.912 0-47.74-38.843-86.59-86.588-86.59zm0-16c-56.568 0-102.59 46.02-102.59 102.59 0 56.572 46.022 102.59 102.59 102.59 56.569 0 102.588-46.018 102.588-102.59 0-56.57-46.019-102.59-102.588-102.59zm232.603 296.382-25.911 26.699c-.962.989-2.122 1.149-2.727 1.16-.601.02-1.769-.12-2.76-1.079l-71.77-69.641c-.991-.96-1.153-2.12-1.162-2.731-.011-.599.12-1.769 1.079-2.76l25.912-26.699c.962-.99 2.122-1.15 2.727-1.161h.059c.62 0 1.741.14 2.703 1.079l71.766 69.641c1.511 1.461 1.548 3.981.084 5.492zm-457.461-9.531h365.662l-22.512-21.85c-.138-.13-.259-.279-.395-.421h-342.755zm349.774-57.219-28.392-27.551c4.061-3.95 7.883-8.129 11.441-12.541l28.77 27.911zm-124.916 11.65c22.367 0 43.508-5.331 62.236-14.77v22.071h-124.473v-22.071c18.727 9.438 39.871 14.77 62.237 14.77zm0-16.001c67.652 0 122.69-55.04 122.69-122.691 0-67.649-55.038-122.689-122.69-122.689-67.651 0-122.689 55.04-122.689 122.689 0 67.651 55.038 122.691 122.689 122.691zm78.236 23.301h34.166c.256-2.411.929-4.721 2.01-6.852l-30.038-29.148c-2.004 1.539-4.051 3.029-6.138 4.459zm-274.332-258.411c4.419 0 7.999 3.58 7.999 7.999v250.412h109.859v-31.541c-36.474-25.011-60.452-66.98-60.452-114.451 0-76.468 62.215-138.689 138.689-138.689s138.69 62.221 138.69 138.689c0 27.102-7.819 52.401-21.309 73.791l31.134 30.209c2.799-1.53 5.947-2.37 9.235-2.42 5.296-.079 10.342 1.9 14.145 5.59l16.199 15.721v-227.311c0-4.419 3.583-7.999 7.999-7.999h28.678l-224.77-101.45-224.773 101.45zm40.502-102.229h49.563v31.079l-49.563 22.37zm399.255 391.469-2.806-2.729v-20.101c0-4.421-3.582-7.999-7.998-7.999h-20.959l-7.805-7.571v-234.84h27.757c6.873 0 12.682-4.7 14.132-11.44 1.445-6.731-1.916-13.411-8.172-16.23l-234.52-105.848c-2.091-.941-4.489-.941-6.581 0l-86.739 39.148v-31.861c0-4.42-3.582-7.998-7.999-7.998h-65.566c-4.419 0-7.999 3.578-7.999 7.998v68.67l-66.215 29.892c-6.261 2.83-9.621 9.499-8.172 16.239 1.449 6.73 7.258 11.43 14.128 11.43h27.756v242.411h-28.76c-4.419 0-8.001 3.578-8.001 7.999v38.27c0 4.42 3.582 8.001 8.001 8.001h390.151l32.769 31.791c3.728 3.619 8.63 5.599 13.834 5.599h.308c5.32-.081 10.281-2.22 13.972-6.021h-.002l25.915-26.701c7.626-7.868 7.438-20.48-.429-28.109z"/></g></svg>