<?xml version="1.0" encoding="UTF-8" standalone="no"?>
<!-- Created with Inkscape (http://www.inkscape.org/) -->

<svg
   version="1.1"
   id="svg783"
   xml:space="preserve"
   width="682.66669"
   height="682.66669"
   viewBox="0 0 682.66669 682.66669"
   xmlns="http://www.w3.org/2000/svg"
   xmlns:svg="http://www.w3.org/2000/svg"><defs
     id="defs787"><clipPath
       clipPathUnits="userSpaceOnUse"
       id="clipPath797"><path
         d="M 0,512 H 512 V 0 H 0 Z"
         id="path795" /></clipPath></defs><g
     id="g789"
     transform="matrix(1.3333333,0,0,-1.3333333,0,682.66667)"><g
       id="g791"><g
         id="g793"
         clip-path="url(#clipPath797)"><g
           id="g799"
           transform="translate(368.6133,294.1777)"><path
             d="m 0,0 c -3.301,3.958 -7.009,3.246 -8.127,-1.574 -12.184,-52.521 -43.855,-94.687 -55.064,-78.892 -21.463,30.243 30.06,77.444 8.247,143.069 -12.915,38.854 -40.122,62.814 -55.197,73.387 -3.346,2.347 -8.175,-0.319 -7.274,-4.014 5.038,-20.661 10.155,-69.419 -23.391,-98.823 -16.741,-14.674 -26.937,-30.532 -33.146,-44.261 -4.615,-10.204 -18.303,-11.888 -25.368,-3.199 -9.898,12.171 -22.103,22.04 -29.486,27.701 -3.313,2.54 -8.366,-0.13 -7.414,-3.918 10.937,-43.536 0.293,-75.294 -6.232,-105.061 -15.166,-69.186 86.676,-120.442 131.756,-117.526 31.22,2.02 122.843,37.806 128.769,117.695 C 21.475,-49.561 11.543,-13.84 0,0"
             style="fill:#fcb143;fill-opacity:1;fill-rule:nonzero;stroke:none"
             id="path801" /></g><g
           id="g803"
           transform="translate(368.6133,294.1777)"><path
             d="m 0,0 c -3.301,3.958 -7.009,3.247 -8.127,-1.574 -3.371,-14.532 -8.236,-28.269 -13.744,-40.207 2.666,-15.251 3.752,-33.46 2.256,-53.635 -5.2,-70.111 -76.403,-106.251 -114.857,-115.414 8.823,-1.915 16.952,-2.722 23.776,-2.281 31.22,2.02 122.843,37.806 128.769,117.695 C 21.475,-49.561 11.543,-13.84 0,0"
             style="fill:#fba615;fill-opacity:1;fill-rule:nonzero;stroke:none"
             id="path805" /></g><g
           id="g807"
           transform="translate(313.8408,169.8315)"><path
             d="m 0,0 c -63.477,-15.966 -52.021,62.954 -71.198,60.376 -34.332,-4.614 -9.187,-70.613 -19.761,-74.918 -21.398,-8.713 -33.687,40.949 -34.815,35.834 -3.689,-16.716 -22.08,-57.975 -4.866,-87.309 26.28,-15.481 55.601,-23.984 74.716,-22.748 6.097,0.395 14.494,2.077 24.109,5.122 0.072,0.026 0.145,0.051 0.218,0.075 C -8.304,-62.445 5.809,-37.5 12.662,-13.055 14.836,-5.299 7.812,1.964 0,0"
             style="fill:#fcee56;fill-opacity:1;fill-rule:nonzero;stroke:none"
             id="path809" /></g><g
           id="g811"
           transform="translate(314.9062,127.9575)"><path
             d="m 0,0 c -25.078,-24.875 -58.439,-39.29 -80.765,-44.609 8.823,-1.915 16.952,-2.723 23.776,-2.282 6.141,0.398 14.625,2.108 24.327,5.197 C -18.533,-28.882 -7.803,-14.66 0,0"
             style="fill:#fbe709;fill-opacity:1;fill-rule:nonzero;stroke:none"
             id="path813" /></g><g
           id="g815"
           transform="translate(254.8437,396.981)"><path
             d="m 0,0 c 8.228,-10.993 15.87,-24.357 21.137,-40.201 21.813,-65.624 -29.71,-112.825 -8.247,-143.069 11.209,-15.794 40.815,-17.831 45.391,-3.186 -3.065,-0.591 -5.709,0.376 -7.703,3.186 -21.463,30.244 30.061,77.445 8.247,143.069 C 45.91,-1.347 18.703,22.614 3.629,33.187 0.282,35.534 -4.547,32.869 -3.646,29.172 -1.922,22.104 -0.19,11.746 0,0"
             style="fill:#fba615;fill-opacity:1;fill-rule:nonzero;stroke:none"
             id="path817" /></g><g
           id="g819"
           transform="translate(255.999,471.2603)"><path
             d="m 0,0 c -57.498,0 -111.555,-22.391 -152.212,-63.048 -38.039,-38.039 -60.349,-88.561 -62.818,-142.259 -2.454,-53.342 14.786,-105.345 48.545,-146.429 l 2.852,-3.472 303.582,303.582 -3.473,2.853 C 98.199,-17.321 49.731,0 0,0 m -139.947,-378.894 3.472,-2.853 c 38.278,-31.452 86.746,-48.774 136.477,-48.774 57.498,0 111.555,22.392 152.211,63.048 38.04,38.04 60.349,88.562 62.819,142.26 2.454,53.341 -14.787,105.344 -48.544,146.428 l -2.854,3.473 z M 0.001,-463.76 c -66.377,0 -128.78,25.848 -175.716,72.784 -46.935,46.935 -72.784,109.339 -72.784,175.716 0,66.376 25.849,128.78 72.784,175.716 46.936,46.935 109.339,72.784 175.716,72.784 66.377,0 128.78,-25.849 175.716,-72.784 46.934,-46.936 72.784,-109.34 72.784,-175.716 0,-66.377 -25.85,-128.781 -72.784,-175.716 C 128.781,-437.912 66.378,-463.76 0.001,-463.76"
             style="fill:#fa4954;fill-opacity:1;fill-rule:nonzero;stroke:none"
             id="path821" /></g><g
           id="g823"
           transform="translate(431.7158,431.7158)"><path
             d="m 0,0 c -46.936,46.936 -109.339,72.784 -175.716,72.784 -6.321,0 -12.605,-0.238 -18.845,-0.702 C -135.283,67.667 -80.155,42.466 -37.688,0 c 19.986,-19.987 36.133,-42.786 48.105,-67.495 20.677,-35.511 30.818,-76.432 28.898,-118.174 -1.602,-34.841 -11.566,-68.34 -28.751,-97.965 -11.986,-24.826 -28.184,-47.729 -48.252,-67.798 -42.467,-42.465 -97.595,-67.666 -156.873,-72.081 6.24,-0.465 12.524,-0.703 18.845,-0.703 66.377,0 128.78,25.849 175.716,72.784 46.935,46.936 72.784,109.34 72.784,175.716 C 72.784,-109.339 46.935,-46.936 0,0"
             style="fill:#fa2a3b;fill-opacity:1;fill-rule:nonzero;stroke:none"
             id="path825" /></g><g
           id="g827"
           transform="translate(190.1836,99.9009)"><path
             d="m 0,0 c 24.366,-12.985 50.296,-19.962 67.733,-18.834 31.221,2.02 122.844,37.806 128.77,117.695 3.401,45.855 -6.53,81.576 -18.073,95.416 -3.301,3.958 -7.009,3.246 -8.127,-1.574 -12.184,-52.521 -43.856,-94.687 -55.065,-78.892 -3.58,5.044 -5.13,10.562 -5.328,16.558 -0.228,6.936 1.352,14.513 3.689,22.741"
             style="fill:none;stroke:#000000;stroke-width:15;stroke-linecap:round;stroke-linejoin:round;stroke-miterlimit:10;stroke-dasharray:none;stroke-opacity:1"
             id="path829" /></g><g
           id="g831"
           transform="translate(304.9609,377.2856)"><path
             d="m 0,0 c -14.088,26.954 -34.272,44.314 -46.488,52.882 -3.347,2.347 -8.176,-0.318 -7.275,-4.014 5.039,-20.66 10.156,-69.419 -23.39,-98.823 -16.742,-14.674 -26.938,-30.532 -33.147,-44.261 -4.615,-10.204 -18.303,-11.888 -25.368,-3.199 -9.897,12.171 -22.103,22.04 -29.485,27.701 -3.314,2.54 -8.367,-0.13 -7.414,-3.918 10.936,-43.536 0.293,-75.294 -6.233,-105.061 -0.46,-2.099 -0.812,-4.182 -1.061,-6.246"
             style="fill:none;stroke:#000000;stroke-width:15;stroke-linecap:round;stroke-linejoin:round;stroke-miterlimit:10;stroke-dasharray:none;stroke-opacity:1"
             id="path833" /></g><g
           id="g835"
           transform="translate(255.999,471.2603)"><path
             d="m 0,0 c -57.498,0 -111.555,-22.391 -152.212,-63.048 -38.039,-38.039 -60.349,-88.561 -62.818,-142.259 -2.454,-53.342 14.786,-105.345 48.545,-146.429 l 2.852,-3.472 303.582,303.582 -3.473,2.853 C 98.199,-17.321 49.731,0 0,0 Z m -139.947,-378.894 3.472,-2.853 c 38.278,-31.452 86.746,-48.774 136.477,-48.774 57.498,0 111.555,22.392 152.211,63.048 38.04,38.04 60.349,88.562 62.819,142.26 2.454,53.341 -14.787,105.344 -48.544,146.428 l -2.854,3.473 z M 0.001,-463.76 c -66.377,0 -128.78,25.848 -175.716,72.784 -46.935,46.935 -72.784,109.339 -72.784,175.716 0,66.376 25.849,128.78 72.784,175.716 46.936,46.935 109.339,72.784 175.716,72.784 66.377,0 128.78,-25.849 175.716,-72.784 46.934,-46.936 72.784,-109.34 72.784,-175.716 0,-66.377 -25.85,-128.781 -72.784,-175.716 C 128.781,-437.912 66.378,-463.76 0.001,-463.76 Z"
             style="fill:none;stroke:#000000;stroke-width:15;stroke-linecap:round;stroke-linejoin:round;stroke-miterlimit:10;stroke-dasharray:none;stroke-opacity:1"
             id="path837" /></g><g
           id="g839"
           transform="translate(223.7803,200.0952)"><path
             d="m 0,0 c -0.469,-19.774 5.14,-42.348 -0.898,-44.806 -11.205,-4.562 -19.911,6.879 -25.826,18.082"
             style="fill:none;stroke:#000000;stroke-width:15;stroke-linecap:round;stroke-linejoin:round;stroke-miterlimit:10;stroke-dasharray:none;stroke-opacity:1"
             id="path841" /></g><g
           id="g843"
           transform="translate(282.0254,86.1885)"><path
             d="m 0,0 c 0.072,0.026 0.146,0.051 0.219,0.075 23.293,21.123 37.405,46.068 44.259,70.513 2.173,7.756 -4.851,15.019 -12.663,13.055 -53.548,-13.469 -53.77,40.589 -64.044,56.28"
             style="fill:none;stroke:#000000;stroke-width:15;stroke-linecap:round;stroke-linejoin:round;stroke-miterlimit:10;stroke-dasharray:none;stroke-opacity:1"
             id="path845" /></g><g
           id="g847"
           transform="translate(178.2412,154.5562)"><path
             d="M 0,0 C -3.303,-16.686 -4.07,-35.354 4.96,-50.741"
             style="fill:none;stroke:#000000;stroke-width:15;stroke-linecap:round;stroke-linejoin:round;stroke-miterlimit:10;stroke-dasharray:none;stroke-opacity:1"
             id="path849" /></g><g
           id="g851"
           transform="translate(183.2012,103.8149)"><path
             d="M 0,0 C 26.279,-15.481 55.601,-23.985 74.716,-22.748"
             style="fill:none;stroke:#000000;stroke-width:15;stroke-linecap:round;stroke-linejoin:round;stroke-miterlimit:10;stroke-dasharray:none;stroke-opacity:1"
             id="path853" /></g></g></g></g></svg>
