<svg enable-background="new 0 0 512 512" viewBox="0 0 512 512" xmlns="http://www.w3.org/2000/svg"><g id="_x39_8_Gypsum_Board"><g><path d="m414.438 25.574v350.321c0 3.243-2.629 5.872-5.872 5.872h-201.598c-3.243 0-5.872-2.629-5.872-5.872v-350.321c0-3.243 2.629-5.872 5.872-5.872h201.599c3.242 0 5.871 2.629 5.871 5.872z" fill="#fefeff"/><path d="m415.28 25.569v350.331c0 3.214-2.599 5.86-5.86 5.86h-16.21v-333.224c0-3.261-2.647-5.86-5.86-5.86h-185.397v-17.107c0-3.261 2.646-5.86 5.86-5.86h201.607c3.261 0 5.86 2.599 5.86 5.86z" fill="#d2dcf3"/><path d="m379.927 62.416v350.321c0 3.243-2.629 5.872-5.872 5.872h-201.599c-3.243 0-5.872-2.629-5.872-5.872v-350.321c0-3.243 2.629-5.872 5.872-5.872h201.599c3.243.001 5.872 2.63 5.872 5.872z" fill="#f6afba"/><path d="m379.913 62.425v350.331c0 3.214-2.599 5.86-5.86 5.86h-16.21v-333.224c0-3.261-2.647-5.86-5.86-5.86h-185.397v-17.107c0-3.261 2.646-5.86 5.86-5.86h201.607c3.261 0 5.86 2.599 5.86 5.86z" fill="#e891a1"/><path d="m345.416 99.259v350.321c0 3.243-2.629 5.872-5.872 5.872h-201.599c-3.243 0-5.872-2.629-5.872-5.872v-350.321c0-3.243 2.629-5.872 5.872-5.872h201.599c3.243 0 5.872 2.629 5.872 5.872z" fill="#fefeff"/><path d="m344.558 99.254v350.331c0 3.214-2.599 5.86-5.86 5.86h-16.21v-333.224c0-3.261-2.647-5.86-5.86-5.86h-185.396v-17.107c0-3.261 2.646-5.86 5.86-5.86h201.607c3.26-.001 5.859 2.598 5.859 5.86z" fill="#d2dcf3"/><path d="m310.904 136.101v350.321c0 3.243-2.629 5.872-5.872 5.872h-201.598c-3.243 0-5.872-2.629-5.872-5.872v-350.321c0-3.243 2.629-5.872 5.872-5.872h201.599c3.243 0 5.871 2.629 5.871 5.872z" fill="#fcdbce"/><path d="m310.915 136.102v350.331c0 3.213-2.646 5.86-5.86 5.86h-28.403v-328.97c0-3.261-2.646-5.861-5.86-5.861h-173.252v-21.361c0-3.261 2.647-5.86 5.907-5.86h201.607c3.215 0 5.861 2.599 5.861 5.861z" fill="#f6c2bb"/><g fill="#2e2e6d"><path d="m408.567 14.979h-201.598c-5.843 0-10.596 4.754-10.596 10.596v26.242h-23.916c-5.843 0-10.596 4.754-10.596 10.601v26.242h-23.916c-5.843 0-10.596 4.754-10.596 10.601v26.242h-23.916c-5.843 0-10.596 4.754-10.596 10.601v350.316c0 5.847 4.754 10.601 10.596 10.601h201.599c5.847 0 10.601-4.754 10.601-10.601v-26.242h23.911c5.843 0 10.596-4.754 10.596-10.601v-26.242h23.916c5.843 0 10.596-4.754 10.596-10.601v-26.242h23.916c5.843 0 10.596-4.754 10.596-10.596v-350.321c0-5.843-4.754-10.596-10.597-10.596zm-102.387 471.441c0 .632-.517 1.149-1.149 1.149h-201.598c-.632 0-1.145-.517-1.145-1.149v-350.317c0-.632.512-1.149 1.145-1.149h201.599c.632 0 1.149.517 1.149 1.149v350.317zm34.508-36.842c0 .632-.512 1.149-1.145 1.149h-23.911v-314.624c0-5.847-4.754-10.601-10.601-10.601h-168.231v-26.241c0-.632.512-1.149 1.145-1.149h201.599c.632 0 1.145.517 1.145 1.149v350.317zm34.512-36.843c0 .632-.512 1.149-1.145 1.149h-23.915v-314.623c0-5.847-4.754-10.601-10.596-10.601h-168.232v-26.242c0-.632.512-1.149 1.145-1.149h201.599c.632 0 1.145.517 1.145 1.149v350.317zm34.512-36.838c0 .632-.512 1.145-1.145 1.145h-23.916v-314.624c0-5.847-4.754-10.601-10.596-10.601h-168.231v-26.242c0-.632.512-1.145 1.145-1.145h201.599c.632 0 1.145.512 1.145 1.145v350.322z"/><path d="m130.768 175.59h18.036c2.612 0 4.726-2.114 4.726-4.726s-2.114-4.726-4.726-4.726h-18.036c-2.612 0-4.726 2.114-4.726 4.726s2.114 4.726 4.726 4.726z"/><path d="m219.005 175.59h18.041c2.612 0 4.726-2.114 4.726-4.726s-2.114-4.726-4.726-4.726h-18.041c-2.612 0-4.726 2.114-4.726 4.726s2.114 4.726 4.726 4.726z"/><path d="m169.983 209.71h18.041c2.612 0 4.726-2.114 4.726-4.726s-2.114-4.726-4.726-4.726h-18.041c-2.612 0-4.726 2.114-4.726 4.726s2.114 4.726 4.726 4.726z"/><path d="m190.751 237.383c0 2.612 2.114 4.726 4.726 4.726h18.036c2.612 0 4.726-2.114 4.726-4.726s-2.114-4.726-4.726-4.726h-18.036c-2.612 0-4.726 2.113-4.726 4.726z"/><path d="m126.453 242.108h18.041c2.612 0 4.726-2.114 4.726-4.726s-2.114-4.726-4.726-4.726h-18.041c-2.612 0-4.726 2.114-4.726 4.726 0 2.613 2.114 4.726 4.726 4.726z"/><path d="m246.848 209.71h18.041c2.612 0 4.726-2.114 4.726-4.726s-2.114-4.726-4.726-4.726h-18.041c-2.612 0-4.726 2.114-4.726 4.726s2.114 4.726 4.726 4.726z"/><path d="m188.024 274.502c2.612 0 4.726-2.114 4.726-4.726s-2.114-4.726-4.726-4.726h-18.041c-2.612 0-4.726 2.114-4.726 4.726s2.114 4.726 4.726 4.726z"/><path d="m269.615 269.776c0-2.612-2.114-4.726-4.726-4.726h-18.041c-2.612 0-4.726 2.114-4.726 4.726s2.114 4.726 4.726 4.726h18.041c2.612 0 4.726-2.114 4.726-4.726z"/><path d="m282.016 232.657h-18.041c-2.612 0-4.726 2.114-4.726 4.726s2.114 4.726 4.726 4.726h18.041c2.612 0 4.726-2.114 4.726-4.726-.001-2.613-2.114-4.726-4.726-4.726z"/><path d="m277.7 405.254h-18.04c-2.612 0-4.726 2.114-4.726 4.726s2.114 4.726 4.726 4.726h18.04c2.612 0 4.726-2.114 4.726-4.726 0-2.613-2.113-4.726-4.726-4.726z"/><path d="m189.463 405.254h-18.041c-2.612 0-4.726 2.114-4.726 4.726s2.114 4.726 4.726 4.726h18.041c2.612 0 4.726-2.114 4.726-4.726 0-2.613-2.113-4.726-4.726-4.726z"/><path d="m217.717 343.462c0-2.612-2.114-4.726-4.726-4.726h-18.041c-2.612 0-4.726 2.114-4.726 4.726s2.114 4.726 4.726 4.726h18.041c2.613 0 4.726-2.114 4.726-4.726z"/><path d="m282.016 338.736h-18.041c-2.612 0-4.726 2.114-4.726 4.726s2.114 4.726 4.726 4.726h18.041c2.612 0 4.726-2.114 4.726-4.726s-2.114-4.726-4.726-4.726z"/><path d="m238.486 371.134h-18.041c-2.612 0-4.726 2.114-4.726 4.726s2.114 4.726 4.726 4.726h18.041c2.612 0 4.726-2.114 4.726-4.726-.001-2.612-2.114-4.726-4.726-4.726z"/><path d="m161.616 371.134h-18.041c-2.612 0-4.726 2.114-4.726 4.726s2.114 4.726 4.726 4.726h18.041c2.612 0 4.726-2.114 4.726-4.726s-2.114-4.726-4.726-4.726z"/><path d="m238.486 446.933h-18.041c-2.612 0-4.726 2.114-4.726 4.726s2.114 4.726 4.726 4.726h18.041c2.612 0 4.726-2.114 4.726-4.726s-2.114-4.726-4.726-4.726z"/><path d="m161.616 446.933h-18.041c-2.612 0-4.726 2.114-4.726 4.726s2.114 4.726 4.726 4.726h18.041c2.612 0 4.726-2.114 4.726-4.726s-2.114-4.726-4.726-4.726z"/><path d="m238.486 306.337h-18.041c-2.612 0-4.726 2.114-4.726 4.726s2.114 4.726 4.726 4.726h18.041c2.612 0 4.726-2.114 4.726-4.726-.001-2.612-2.114-4.726-4.726-4.726z"/><path d="m161.616 306.337h-18.041c-2.612 0-4.726 2.114-4.726 4.726s2.114 4.726 4.726 4.726h18.041c2.612 0 4.726-2.114 4.726-4.726s-2.114-4.726-4.726-4.726z"/><path d="m149.219 343.462c0-2.612-2.114-4.726-4.726-4.726h-18.041c-2.612 0-4.726 2.114-4.726 4.726s2.114 4.726 4.726 4.726h18.041c2.613 0 4.726-2.114 4.726-4.726z"/></g></g></g><g id="Layer_1"/></svg>