<svg id="Layer_1" enable-background="new 0 0 64 64" height="64" viewBox="0 0 64 64" width="64" xmlns="http://www.w3.org/2000/svg"><g><path d="m63.179 29.4c-.09-.84-.52-1.6-1.2-2.131l-6.649-5.159v-13.51c0-.529-.431-.969-.971-.969h-8.18c-.54 0-.97.439-.97.969v5.67l-12.62-9.78c-.351-.27-.84-.27-1.19 0l-8.81 6.83c-.04-.86-.21-1.7-.54-2.471l2.33-1.35c.47-.26.63-.859.359-1.32-.27-.47-.859-.619-1.329-.359l-2.33 1.35c-.391-.51-.851-.97-1.36-1.369l1.34-2.33c.271-.461.11-1.051-.35-1.32-.471-.27-1.061-.11-1.33.35l-1.34 2.33c-.601-.25-1.221-.42-1.87-.5v-2.69c0-.53-.431-.971-.97-.971-.53 0-.971.44-.971.971v2.689c-.64.09-1.27.26-1.859.5l-1.35-2.33c-.26-.46-.859-.619-1.319-.35-.471.27-.62.859-.36 1.32l1.35 2.33c-.51.399-.97.85-1.37 1.369l-2.33-1.35c-.46-.26-1.05-.11-1.319.359-.273.463-.112 1.062.348 1.322l2.33 1.35c-.25.59-.42 1.221-.5 1.86h-2.69c-.53 0-.971.44-.971.97 0 .541.44.971.971.971h2.689c.08.65.25 1.279.5 1.869l-2.33 1.341c-.46.271-.62.86-.35 1.329.18.311.5.48.84.48.16 0 .33-.039.479-.13l2.33-1.34c.591.771 1.33 1.42 2.17 1.899.471.281.98.49 1.511.65l-10.99 8.52c-.68.541-1.1 1.301-1.19 2.15-.09.84.16 1.66.71 2.32l.21.25c1.11 1.34 3.15 1.561 4.53.49l1.58-1.23v31.78c0 .399.25.739.601.89.119.052.239.081.38.081h46.35c.53 0 .97-.43.97-.97 0 0-.01 0-.01-.011v-31.779l1.6 1.23c.591.469 1.301.699 2.011.699.939 0 1.87-.4 2.5-1.16l.239-.279c.539-.66.789-1.49.69-2.33zm-16.031-19.83h6.24v11.04l-6.24-4.841zm-34.689 6.85c-.83-.48-1.521-1.17-2-2.01-.48-.811-.73-1.75-.73-2.721 0 0 0 0 0-.01 0-.97.25-1.91.73-2.729.979-1.69 2.79-2.74 4.74-2.74h.01c.979 0 1.89.24 2.72.72.01.01.01.01.01.01s.011 0 .011.011c.829.479 1.52 1.181 2 2.01.47.81.72 1.75.72 2.729 0 .421-.05.83-.15 1.23l-5.46 4.23c-.912-.019-1.811-.259-2.601-.73zm41.74 45.641h-44.41v-32.321l22.21-17.21 22.2 17.21zm6.81-31.581-.24.27c-.439.54-1.28.631-1.84.189l-26.34-20.399c-.351-.271-.83-.271-1.19 0l-26.32 20.399c-.57.451-1.4.361-1.851-.189l-.22-.26c-.2-.24-.3-.551-.26-.87.029-.319.2-.62.46-.819l28.79-22.32 28.79 22.32c.27.199.43.489.47.819.031.31-.059.63-.249.86z" fill="#2b2f64"/><path d="m31.999 12.53-22.21 17.21v32.32h44.41v-32.32zm-9.23 21.64c-.03.02-3.78 1.99-4.58 5.65-.45 2.1.29 4.4 1.99 6.16.97 1 2.11 2.67 2.06 4.97-.05 2.47-1.479 5.04-4.239 7.66-.19.17-.431.26-.67.26-.25 0-.511-.101-.7-.3-.37-.391-.351-1 .04-1.37 2.37-2.25 3.59-4.36 3.63-6.29.04-1.63-.8-2.85-1.521-3.58-2.149-2.22-3.079-5.18-2.479-7.92.99-4.57 5.4-6.87 5.59-6.971.48-.239 1.061-.049 1.3.421.248.48.059 1.06-.421 1.31zm8.2 0c-.04.02-3.79 1.99-4.58 5.65-.46 2.1.28 4.4 1.98 6.16.97 1 2.109 2.67 2.06 4.97-.05 2.47-1.479 5.04-4.24 7.66-.18.17-.42.26-.66.26-.26 0-.52-.101-.71-.3-.369-.391-.35-1 .04-1.37 2.37-2.25 3.591-4.36 3.63-6.29.04-1.63-.8-2.85-1.51-3.58-2.149-2.22-3.08-5.18-2.49-7.92 1-4.57 5.4-6.87 5.591-6.971.479-.239 1.06-.049 1.31.421.239.48.048 1.06-.421 1.31zm-3.45-10c0-2.47 2.01-4.48 4.48-4.48s4.479 2.011 4.479 4.48c0 2.471-2.01 4.49-4.479 4.49-2.471 0-4.48-2.019-4.48-4.49zm11.64 10c-.04.02-3.78 1.99-4.58 5.65-.46 2.1.279 4.4 1.979 6.16.97 1 2.12 2.67 2.07 4.97-.061 2.47-1.48 5.04-4.24 7.66-.189.17-.43.26-.67.26-.26 0-.51-.101-.7-.3-.37-.391-.359-1 .03-1.37 2.37-2.25 3.59-4.36 3.64-6.29.03-1.63-.81-2.85-1.52-3.58-2.15-2.22-3.08-5.18-2.49-7.92 1-4.57 5.41-6.87 5.59-6.971.48-.239 1.061-.049 1.311.421.239.48.05 1.06-.42 1.31zm8.19 0c-.04.02-3.78 1.99-4.58 5.65-.46 2.1.29 4.4 1.98 6.16.97 1 2.12 2.67 2.069 4.97-.06 2.47-1.479 5.04-4.239 7.66-.19.17-.431.26-.67.26-.261 0-.511-.101-.7-.3-.37-.391-.351-1 .029-1.37 2.37-2.25 3.601-4.36 3.641-6.29.03-1.63-.811-2.85-1.521-3.58-2.149-2.22-3.08-5.18-2.479-7.92.99-4.57 5.399-6.87 5.59-6.971.47-.239 1.06-.049 1.3.421.24.48.06 1.06-.42 1.31z" fill="#cbeafb"/><path d="m53.389 9.57v11.04l-6.241-4.84v-6.2z" fill="#f59393"/><path d="m61.259 29.62c.03.31-.06.63-.25.86l-.24.27c-.439.54-1.28.631-1.84.189l-26.34-20.399c-.351-.271-.83-.271-1.19 0l-26.32 20.399c-.57.451-1.4.361-1.851-.189l-.22-.26c-.2-.24-.3-.551-.26-.87.029-.319.2-.62.46-.819l28.79-22.32 28.79 22.32c.271.199.431.489.471.819z" fill="#f59393"/><path d="m20.669 11.689c0 .421-.05.83-.15 1.23l-5.46 4.23c-.91-.02-1.81-.26-2.6-.73-.83-.48-1.521-1.17-2-2.01-.48-.811-.73-1.75-.73-2.721 0 0 0 0 0-.01 0-.97.25-1.91.73-2.729.979-1.69 2.79-2.74 4.74-2.74h.01c.979 0 1.89.24 2.72.72.01.01.01.01.01.01s.011 0 .011.011c.829.479 1.52 1.181 2 2.01.469.81.719 1.75.719 2.729z" fill="#fedc7d"/><path d="m36.499 1.945c.019-.004 1.843-.121 2.788.79.42.403.607.972.574 1.737-.02.475.306.893.77.99.066.014.134.021.2.021.392 0 .755-.238.902-.616.278-.711.679-1.154 1.222-1.355 1.028-.379 2.427.159 2.876.4.473.252 1.06.079 1.313-.393.255-.471.08-1.06-.391-1.314-.097-.053-2.395-1.275-4.46-.518-.355.131-.684.313-.981.543-.18-.33-.406-.629-.68-.892-1.583-1.526-4.18-1.335-4.288-1.327-.534.044-.933.511-.889 1.045.042.534.506.921 1.044.889z" fill="#2b2f64"/><path d="m31.999 19.689c-2.471 0-4.48 2.011-4.48 4.48 0 2.471 2.01 4.49 4.48 4.49s4.479-2.02 4.479-4.49c.001-2.469-2.009-4.48-4.479-4.48zm0 7.032c-1.4 0-2.54-1.141-2.54-2.551 0-1.4 1.14-2.539 2.54-2.539 1.399 0 2.55 1.139 2.55 2.539 0 1.41-1.151 2.551-2.55 2.551z" fill="#2b2f64"/><path d="m34.549 24.17c0 1.41-1.15 2.551-2.55 2.551s-2.54-1.141-2.54-2.551c0-1.4 1.14-2.539 2.54-2.539 1.399 0 2.55 1.139 2.55 2.539z" fill="#bbe1f4"/><g fill="#2b2f64"><path d="m22.769 34.17c-.03.02-3.78 1.99-4.58 5.65-.45 2.1.29 4.4 1.99 6.16.97 1 2.11 2.67 2.06 4.97-.05 2.47-1.479 5.04-4.239 7.66-.19.17-.431.26-.67.26-.25 0-.511-.101-.7-.3-.37-.391-.351-1 .04-1.37 2.37-2.25 3.59-4.36 3.63-6.29.04-1.63-.8-2.85-1.521-3.58-2.149-2.22-3.079-5.18-2.479-7.92.99-4.57 5.4-6.87 5.59-6.971.48-.239 1.061-.049 1.3.421.248.48.059 1.06-.421 1.31z"/><path d="m30.969 34.17c-.04.02-3.79 1.99-4.58 5.65-.46 2.1.28 4.4 1.98 6.16.97 1 2.109 2.67 2.06 4.97-.05 2.47-1.479 5.04-4.24 7.66-.18.17-.42.26-.66.26-.26 0-.52-.101-.71-.3-.369-.391-.35-1 .04-1.37 2.37-2.25 3.591-4.36 3.63-6.29.04-1.63-.8-2.85-1.51-3.58-2.149-2.22-3.08-5.18-2.49-7.92 1-4.57 5.4-6.87 5.591-6.971.479-.239 1.06-.049 1.31.421.239.48.048 1.06-.421 1.31z"/><path d="m39.159 34.17c-.04.02-3.78 1.99-4.58 5.65-.46 2.1.279 4.4 1.979 6.16.97 1 2.12 2.67 2.07 4.97-.061 2.47-1.48 5.04-4.24 7.66-.189.17-.43.26-.67.26-.26 0-.51-.101-.7-.3-.37-.391-.359-1 .03-1.37 2.37-2.25 3.59-4.36 3.64-6.29.03-1.63-.81-2.85-1.52-3.58-2.15-2.22-3.08-5.18-2.49-7.92 1-4.57 5.41-6.87 5.59-6.971.48-.239 1.061-.049 1.311.421.239.48.05 1.06-.42 1.31z"/><path d="m47.349 34.17c-.04.02-3.78 1.99-4.58 5.65-.46 2.1.29 4.4 1.98 6.16.97 1 2.12 2.67 2.069 4.97-.06 2.47-1.479 5.04-4.239 7.66-.19.17-.431.26-.67.26-.261 0-.511-.101-.7-.3-.37-.391-.351-1 .029-1.37 2.37-2.25 3.601-4.36 3.641-6.29.03-1.63-.811-2.85-1.521-3.58-2.149-2.22-3.08-5.18-2.479-7.92.99-4.57 5.399-6.87 5.59-6.971.47-.239 1.06-.049 1.3.421.24.48.06 1.06-.42 1.31z"/></g></g></svg>