<svg id="Capa_1" enable-background="new 0 0 512 512" height="512" viewBox="0 0 512 512" width="512" xmlns="http://www.w3.org/2000/svg"><g><g><path d="m227.956 61.328h180.923v118.477h-180.923z" fill="#ffe9c8"/><path d="m408.879 144.609-32.949-36.246c-5.405-6.003-14.818-6.003-20.223 0l-45.064 50.055 18.967 21.068 79.269.32z" fill="#009e65"/><path d="m357.929 108.363 50.949 53.214v-16.968l-32.949-36.246c-5.051-5.61-13.602-5.974-19.111-1.098.386.341.758.705 1.111 1.098z" fill="#008954"/><path d="m329.61 179.486-48.73-54.128c-4.857-5.395-13.317-5.395-18.174 0l-34.749 38.598v15.849z" fill="#00e0a7"/><path d="m280.879 125.357c-4.829-5.364-13.217-5.389-18.087-.087.028.03.059.056.087.087l48.73 54.128-83.653.263v.057l101.653-.32z" fill="#00c988"/><path d="m110.93 479.557h-81.515v-1.127c0-14.304 11.595-25.899 25.899-25.899h29.717c14.304 0 25.899 11.595 25.899 25.899z" fill="#ff656b"/><path d="m85.031 452.531h-18c14.304 0 25.899 11.595 25.899 25.899v1.127h18v-1.127c0-14.304-11.596-25.899-25.899-25.899z" fill="#ff3e4c"/><circle cx="310.643" cy="98.192" fill="#ffdc00" r="13.68"/><path d="m199.071 32.443h238.693l-28.885 28.885h-180.923z" fill="#e8834d"/><path d="m199.071 208.69h238.693l-28.885-28.885h-180.923z" fill="#e8834d"/><path d="m199.071 208.69v-176.247l28.885 28.885v118.477z" fill="#bc6640"/><path d="m437.764 208.69v-176.247l-28.885 28.885v118.477z" fill="#bc6640"/><path d="m132.344 177.963h-124.344l26.301-115.042h71.743z" fill="#ffe9c8"/><path d="m106.044 62.921h-18l26.3 115.042h18z" fill="#ffdca7"/><path d="m191.099 408.093h254.636v71.464h-254.636z" fill="#bc6640"/><path d="m427.736 408.093h18v71.464h-18z" fill="#a05638"/><path d="m191.099 479.557h-58.264v-106.818c0-16.089 13.043-29.132 29.132-29.132 16.089 0 29.132 13.043 29.132 29.132z" fill="#ff9a00"/><path d="m161.967 343.607c-3.142 0-6.165.503-9 1.424 11.683 3.793 20.132 14.761 20.132 27.708v106.818h18v-106.818c0-16.089-13.042-29.132-29.132-29.132z" fill="#ef8800"/><path d="m504 479.557h-58.264v-106.818c0-16.089 13.043-29.132 29.132-29.132 16.089 0 29.132 13.043 29.132 29.132z" fill="#ff9a00"/><path d="m474.868 343.607c-3.142 0-6.165.503-9 1.424 11.683 3.793 20.132 14.761 20.132 27.708v106.818h18v-106.818c0-16.089-13.043-29.132-29.132-29.132z" fill="#ef8800"/><path d="m191.099 372.739v35.354h254.636v-35.354c0-16.089 13.043-29.132 29.132-29.132v-34.2c0-21.519-17.445-38.964-38.964-38.964h-234.972c-21.519 0-38.964 17.445-38.964 38.964v34.2c16.09 0 29.132 13.043 29.132 29.132z" fill="#e8834d"/><path d="m435.904 270.443h-18c21.519 0 38.964 17.444 38.964 38.964v15.893c0 2.009-1.214 3.797-3.055 4.601-16.492 7.204-26.077 22.102-26.077 33.839v44.354h18v-35.354c0-16.089 13.043-29.132 29.132-29.132v-34.2c0-21.52-17.445-38.965-38.964-38.965z" fill="#d66e41"/></g><g><path d="m482.811 337.041v-27.529c0-25.671-20.885-46.555-46.555-46.555h-178.298c-4.15 0-7.515 3.364-7.515 7.515s3.365 7.515 7.515 7.515h178.298c17.384 0 31.526 14.142 31.526 31.526v27.529c-16.647 3.477-29.19 18.264-29.19 35.927v27.909h-240.107v-27.909c0-17.664-12.543-32.45-29.189-35.927v-27.529c0-17.384 14.143-31.526 31.526-31.526h27.078c4.15 0 7.515-3.364 7.515-7.515s-3.365-7.515-7.515-7.515h-27.078c-25.671 0-46.555 20.885-46.555 46.555v27.529c-16.646 3.477-29.19 18.264-29.19 35.927v107.027c0 4.151 3.364 7.515 7.515 7.515h231.782c4.151 0 7.515-3.364 7.515-7.515s-3.364-7.515-7.515-7.515h-165.889v-56.574h240.107v56.574h-44.16c-4.151 0-7.515 3.364-7.515 7.515s3.364 7.515 7.515 7.515h110.054c4.151 0 7.515-3.364 7.515-7.515v-107.026c-.001-17.664-12.544-32.45-29.19-35.928zm-342.705 35.928c0-11.951 9.723-21.674 21.675-21.674s21.675 9.723 21.675 21.674v99.512h-43.35zm356.865 99.512h-43.35v-99.512c0-11.951 9.723-21.674 21.675-21.674 11.951 0 21.674 9.723 21.674 21.674v99.512z"/><path d="m191.48 209.331c.367 3.788 3.668 6.781 7.478 6.781h239.161c4.087 0 7.515-3.427 7.515-7.515v-176.593c0-4.088-3.427-7.515-7.515-7.515h-43.687c-4.151 0-7.515 3.364-7.515 7.515s3.364 7.515 7.515 7.515h25.545l-13.912 13.912h-175.054l-13.912-13.912h147.273c4.151 0 7.515-3.364 7.515-7.515s-3.364-7.515-7.515-7.515h-165.415c-4.091 0-7.515 3.432-7.515 7.515v176.593c.001.242.014.493.038.734zm25.619-8.248 13.912-13.913h175.053l13.912 13.913zm184.564-28.943h-68.276l-12.527-13.914 40.626-45.126c2.415-2.685 6.711-2.646 9.117.026l31.06 34.168zm-88.5 0h-77.749v-5.481l32.887-36.53c1.86-2.066 5.181-2.067 7.04 0zm117.441-121.993v140.307l-13.912-13.912v-112.483zm-28.941 74.804-19.914-21.907c-8.275-9.191-23.158-9.191-31.433 0l-39.568 43.95-24.237-26.921c-3.742-4.157-9.096-6.541-14.689-6.541-5.557 0-10.973 2.412-14.691 6.541l-21.717 24.123v-75.736h166.249zm-181.279-60.892v112.484l-13.912 13.912v-140.308z"/><path d="m84.693 445.403h-7.373v-260.079h19.302v85.027c0 4.151 3.365 7.515 7.515 7.515s7.515-3.364 7.515-7.515v-85.027h20.447c4.749 0 8.385-4.557 7.326-9.19l-26.352-115.267c-.781-3.417-3.821-5.84-7.326-5.84h-71.884c-3.505 0-6.545 2.423-7.326 5.84l-26.352 115.267c-1.059 4.633 2.577 9.19 7.326 9.19h54.78v260.078h-7.373c-18.453 0-33.465 15.012-33.465 33.464v1.129c0 4.151 3.365 7.515 7.515 7.515h81.675c4.15 0 7.515-3.364 7.515-7.515v-1.129c-.001-18.451-15.013-33.463-33.465-33.463zm-44.839-375.346h59.903l22.916 100.238h-105.736zm-2.232 402.424c2.603-7.027 9.373-12.049 17.295-12.049h29.775c7.922 0 14.692 5.021 17.295 12.049z"/><path d="m310.748 119.104c11.702 0 21.221-9.52 21.221-21.221 0-11.702-9.52-21.221-21.221-21.221-11.702 0-21.221 9.52-21.221 21.221s9.519 21.221 21.221 21.221zm0-27.413c3.414 0 6.192 2.778 6.192 6.192s-2.778 6.192-6.192 6.192-6.192-2.778-6.192-6.192c0-3.415 2.778-6.192 6.192-6.192z"/></g></g></svg>