<svg enable-background="new 0 0 100 100" viewBox="0 0 100 100" xmlns="http://www.w3.org/2000/svg"><g id="Layer_1"/><g id="Layer_2"><g><g><path d="m49.447 41.459-24.357-18.269v25.259l25.24 18.93 25.24-18.93v-25.259l-24.357 18.269c-.524.393-1.243.393-1.766 0z" fill="#d95040"/><path d="m75.976 84.637h14.654c2.981 0 5.407-2.335 5.407-5.206v-44.915l-20.061 14.487z" fill="#58a55c"/><path d="m3.833 78.833c0 2.871 2.431 5.206 5.419 5.206h14.688v-35.634l-20.107-14.488z" fill="#4e86ec"/><path d="m9.347 17.119c-2.958 1.479-4.723 4.336-4.723 7.643v8.168l19.316 14.486v-25.258l-5.644-4.232c-2.646-1.985-5.992-2.287-8.949-.807z" fill="#b6332a"/><path d="m90.864 16.798c-2.958-1.478-6.303-1.178-8.949.807l-5.644 4.232v25.259l19.316-14.487v-8.169c0-3.306-1.766-6.164-4.723-7.642z" fill="#f3bd42"/></g><path d="m97.498 67.342c.006-6.149-.004-37.025 0-42.489.113-8.79-10.334-14.029-17.309-8.654-3.602 2.721-26.049 19.523-30.189 22.643-4.246-3.185-26.424-19.819-30.19-22.643-6.954-5.366-17.431-.148-17.308 8.655v8.384c.015.429.206.848.554 1.109l20.405 15.303v33.553h-13.286c-2.703 0-4.902-2.199-4.902-4.902v-38.29c-.008-1.805-2.752-1.83-2.772 0v38.291c0 4.232 3.442 7.674 7.674 7.674h14.672c.765 0 1.386-.621 1.386-1.386v-32.86l22.935 17.201c.493.369 1.171.369 1.664 0l22.935-17.201v32.86c0 .765.621 1.386 1.386 1.386h14.672c4.232 0 7.674-3.442 7.674-7.674v-5.08c-.053-1.84-2.732-1.812-2.772 0v5.08c0 2.703-2.199 4.902-4.902 4.902h-13.287v-33.554l18.188-13.641v31.333c.01 1.809 2.752 1.825 2.772 0zm-74.037-21.157-18.188-13.642v-7.691c0-3.114 1.663-5.804 4.447-7.197 2.784-1.394 5.934-1.111 8.426.76l5.314 3.985v23.785zm50.305 2.079-23.767 17.825-23.766-17.825v-23.784l22.935 17.202c.493.37 1.171.37 1.664 0l22.934-17.202zm2.772-2.079v-23.784l5.314-3.985c5.067-4.044 13.071-.043 12.874 6.437v7.69z"/></g></g></svg>