<?xml version="1.0"?>
<svg xmlns="http://www.w3.org/2000/svg" xmlns:xlink="http://www.w3.org/1999/xlink" version="1.1" id="Layer_1" x="0px" y="0px" viewBox="0 0 512 512" style="enable-background:new 0 0 512 512" xml:space="preserve"><style type="text/css">.st0{fill-rule:evenodd;clip-rule:evenodd;fill:#F9F8F4;} .st1{fill-rule:evenodd;clip-rule:evenodd;fill:#FCCB30;} .st2{fill-rule:evenodd;clip-rule:evenodd;fill:#00BEAE;} .st3{fill-rule:evenodd;clip-rule:evenodd;fill:#FF8048;} .st4{fill-rule:evenodd;clip-rule:evenodd;fill:#04AFA1;} .st5{fill-rule:evenodd;clip-rule:evenodd;fill:#FCBD34;} .st6{fill:#EDECE8;} .st7{fill:#00BEAE;} .st8{fill-rule:evenodd;clip-rule:evenodd;fill:#FEFEFE;} .st9{fill-rule:evenodd;clip-rule:evenodd;fill:#EDECE8;} .st10{fill:#FF8048;} .st11{fill-rule:evenodd;clip-rule:evenodd;fill:#EA7745;} .st12{fill:#FCCB30;} .st13{fill-rule:evenodd;clip-rule:evenodd;fill:#E4E3E0;} .st14{fill:#EA7745;}</style><g><g><rect x="47.8" y="101.3" class="st1" width="100.4" height="374.5"/></g><g><rect x="74.5" y="136.8" class="st0" width="39.3" height="39.3"/></g><g><rect x="74.5" y="205.1" class="st0" width="39.3" height="39.3"/></g><g><rect x="74.5" y="273.4" class="st0" width="39.3" height="39.3"/></g><g><path class="st0" d="M142.6,75.9H44.5c-4.5,0-8.2,3.7-8.2,8.2v18.1c0,4.5,3.7,8.2,8.2,8.2h98.1V75.9z"/></g><g><rect x="369.4" y="101.3" class="st1" width="94.7" height="374.5"/></g><g><rect x="398.2" y="136.8" class="st0" width="39.3" height="39.3"/></g><g><rect x="398.2" y="205.1" class="st0" width="39.3" height="39.3"/></g><g><rect x="398.2" y="273.4" class="st0" width="39.3" height="39.3"/></g><g><path class="st0" d="M369.4,75.9h98.1c4.5,0,8.2,3.7,8.2,8.2v18.1c0,4.5-3.7,8.2-8.2,8.2h-98.1V75.9z"/></g><g><path class="st0" d="M139.8,31.2h245.6c4.5,0,8.2,3.7,8.2,8.2v18.1c0,4.5-3.7,8.2-8.2,8.2H139.8c-4.5,0-8.2-3.7-8.2-8.2V39.4    C131.6,34.8,135.3,31.2,139.8,31.2z"/></g><g><rect x="142.6" y="65.6" class="st4" width="226.8" height="293.6"/></g><g><rect x="171.4" y="158.6" class="st0" width="39.3" height="39.3"/></g><g><rect x="236.4" y="158.6" class="st0" width="39.3" height="39.3"/></g><g><rect x="301.3" y="158.6" class="st0" width="39.3" height="39.3"/></g><g><rect x="171.4" y="227" class="st0" width="39.3" height="39.3"/></g><g><rect x="236.4" y="227" class="st0" width="39.3" height="39.3"/></g><g><rect x="301.3" y="227" class="st0" width="39.3" height="39.3"/></g><g><rect x="171.4" y="295.3" class="st0" width="39.3" height="39.3"/></g><g><rect x="236.4" y="295.3" class="st0" width="39.3" height="39.3"/></g><g><rect x="301.3" y="295.3" class="st0" width="39.3" height="39.3"/></g><g><rect x="171.4" y="90.3" class="st0" width="39.3" height="39.3"/></g><g><rect x="236.4" y="90.3" class="st0" width="39.3" height="39.3"/></g><g><rect x="301.3" y="90.3" class="st0" width="39.3" height="39.3"/></g><g><path class="st2" d="M124.7,359.2h262.6c5.4,0,9.8,4.4,9.8,9.8V466c0,5.4-4.4,9.8-9.8,9.8H124.7c-5.4,0-9.8-4.4-9.8-9.8v-96.9    C114.9,363.7,119.3,359.2,124.7,359.2z"/></g><g><rect x="148.1" y="397.9" class="st0" width="39.3" height="39.3"/></g><g><rect x="324.6" y="397.9" class="st0" width="39.3" height="39.3"/></g><g><rect x="223.5" y="397.9" class="st0" width="64.9" height="78"/></g><g><rect x="223.5" y="397.9" class="st0" width="32.5" height="78"/></g><g><path class="st2" d="M29.2,313.1c15.9,0,28.8,13,28.8,28.8v59.1c-1.3,38.1-56.4,38.1-57.7,0c0,0,0-59.1,0-59.1    C0.4,326,13.3,313.1,29.2,313.1z"/></g><g><path class="st10" d="M29.2,480.8c-2.8,0-5-2.2-5-5v-97.4c0-2.8,2.2-5,5-5c2.8,0,5,2.2,5,5v97.4C34.2,478.6,32,480.8,29.2,480.8z"/></g><g><path class="st2" d="M482.8,313.1c-15.9,0-28.8,13-28.8,28.8v59.1c1.3,38.1,56.4,38.1,57.7,0c0,0,0-59.1,0-59.1    C511.6,326,498.7,313.1,482.8,313.1z"/></g><g><path class="st10" d="M482.8,480.8c-2.8,0-5-2.2-5-5v-97.4c0-2.8,2.2-5,5-5s5,2.2,5,5v97.4C487.8,478.6,485.6,480.8,482.8,480.8z"/></g></g></svg>
