<svg viewBox="0 0 24 24" xmlns="http://www.w3.org/2000/svg"><g id="Icon"><path d="m17.61 17-1.61-2.23a2.12 2.12 0 0 0 -1.37-.84 2.06 2.06 0 0 0 -1.56.38l-1.34 1a14.27 14.27 0 0 1 -3.33-4.64l1.34-1a2.12 2.12 0 0 0 .46-2.94l-1.59-2.15a2 2 0 0 0 -1.37-.84 2.07 2.07 0 0 0 -1.56.37l-1.93 1.4a3.44 3.44 0 0 0 -1.37 3.36 17.62 17.62 0 0 0 9.22 12.69 3.45 3.45 0 0 0 3.62-.27l1.92-1.4a2.1 2.1 0 0 0 .47-2.89z" fill="#fbc02d"/><g fill="#66bb6a"><path d="m15.33 12.38h-.12a.75.75 0 0 1 -.62-.86 2.09 2.09 0 0 0 -1.73-2.38.75.75 0 1 1 .24-1.48 3.57 3.57 0 0 1 3 4.09.76.76 0 0 1 -.77.63z"/><path d="m18.12 12.82a.76.76 0 0 1 -.74-.76 5.94 5.94 0 0 0 -4.18-5.75.75.75 0 0 1 .44-1.43 7.44 7.44 0 0 1 5.23 7.2.75.75 0 0 1 -.75.74z"/><path d="m20.92 13.26a.75.75 0 0 1 -.75-.72 10 10 0 0 0 -6.57-9 .77.77 0 0 1 -.44-1 .76.76 0 0 1 1-.44 11.54 11.54 0 0 1 7.54 10.38.76.76 0 0 1 -.72.78z"/></g></g></svg>