<svg id="Capa_1" enable-background="new 0 0 512 512" viewBox="0 0 512 512" xmlns="http://www.w3.org/2000/svg"><g><path d="m433.819 256-176 48-176-48v-182.245c0-14.224 11.53-25.755 25.754-25.755h300.491c14.224 0 25.755 11.531 25.755 25.755z" fill="#26a6fe"/><path d="m396.668 480h-277.699c-2.845 0-5.151-2.306-5.151-5.151v-389.698c0-2.845 2.306-5.151 5.151-5.151h277.698c2.845 0 5.151 2.306 5.151 5.151v389.698c.001 2.845-2.306 5.151-5.15 5.151z" fill="#eaf6ff"/><path d="m396.668 80h-15.453v134.245c0 14.224-11.531 25.755-25.755 25.755l-37.021 26.915-22.22-26.915h-182.4v234.849c0 2.845 2.306 5.151 5.151 5.151h277.698c2.845 0 5.151-2.306 5.151-5.151v-389.698c0-2.845-2.307-5.151-5.151-5.151z" fill="#d8ecfe"/><path d="m294.613 32c-2.533 0-4.747-1.834-5.087-4.345-2.12-15.618-15.508-27.655-31.707-27.655s-29.588 12.037-31.708 27.655c-.341 2.51-2.554 4.345-5.087 4.345h-54.054c-2.845 0-5.151 2.306-5.151 5.151v58.849c0 8.534 6.918 15.453 15.453 15.453h161.095c8.534 0 15.453-6.918 15.453-15.453v-58.849c0-2.845-2.306-5.151-5.151-5.151z" fill="#b3dafe"/><path d="m289.749 145.638-43.193 43.193c-1.092 1.092-2.862 1.092-3.954 0l-22.585-22.585c-2.184-2.184-5.724-2.184-7.907 0l-16.654 16.654c-2.184 2.184-2.184 5.724 0 7.907l45.17 45.17c2.184 2.184 5.724 2.184 7.907 0l65.778-65.778c2.184-2.184 2.184-5.724 0-7.907l-16.655-16.654c-2.183-2.184-5.723-2.184-7.907 0z" fill="#46cc8d"/><path d="m296.219 240h179.382c2.294 0 3.444 2.774 1.821 4.397l-43.603 43.603-96 16-96-16 43.474-43.474c2.897-2.898 6.828-4.526 10.926-4.526z" fill="#eca026"/><path d="m187.418 240h-151.019c-2.294 0-3.444 2.774-1.821 4.397l43.603 43.603 67.637 16 96-16-43.474-43.474c-2.897-2.898-6.828-4.526-10.926-4.526z" fill="#feb237"/><path d="m428.668 512h-186.849l-16-160 16-64h192v218.849c0 2.845-2.307 5.151-5.151 5.151z" fill="#feb237"/><path d="m83.332 512h158.486v-224h-163.637v218.849c0 2.845 2.307 5.151 5.151 5.151z" fill="#ffc344"/><path d="m399.243 480h-42.849c-1.422 0-2.575-1.153-2.575-2.575v-26.849c0-1.422 1.153-2.575 2.575-2.575h42.849c1.422 0 2.575 1.153 2.575 2.575v26.849c.001 1.422-1.153 2.575-2.575 2.575z" fill="#eaf6ff"/><g><path d="m321.819 87.726h-128c-4.268 0-7.726-3.459-7.726-7.726s3.459-7.726 7.726-7.726h128c4.268 0 7.726 3.459 7.726 7.726s-3.459 7.726-7.726 7.726z" fill="#8ac9fe"/></g><g><g><circle cx="257.819" cy="32" fill="#8ac9fe" r="7.726"/></g></g></g><g/><g/><g/><g/><g/><g/><g/><g/><g/><g/><g/><g/><g/><g/><g/></svg>