<svg id="Layer_1" viewBox="0 0 128 128" xmlns="http://www.w3.org/2000/svg" data-name="Layer 1"><path d="m125.25 59.5c-1.75 6.25-3.75 7.58-6.92 8-3.16.42-13.25-.24-13.58 6.5-.33 6.75 1.24 8.31 3.42 11.33 2.17 3.03-4.92 6.09-11.09 7.42-6.16 1.33-16.41 4.58-16.83 8.67-.42 4.08.75 5.08-2.92 5-3.66-.09-19.25.84-22.66 0a14.25447 14.25447 0 0 1 -8.09-4.92c-2-2.5-16.08-5.5-21.16-7.08-5.09-1.59-5.92-6.34-5.42-10.59s1.33-5.16-.13-9.75c-1.45-4.58-11.45-18.66-12.54-23.33-1.08-4.67 3-9.67 1.17-11.92s-6.83-10.83-6.83-10.83l3.75-7s7 8.33 10.25 7 3-7.75 6-7.33c3 .41 5.16 2.16 4.5 8.83-.67 6.67 10.08 3.75 11.91 6.5l8.14 3.29-.46.47a1.79692 1.79692 0 0 0 -.13.14c-.11.12-.22.24005-.31.36a2.36959 2.36959 0 0 0 -.23.3 6.05718 6.05718 0 0 0 -.64 1.17 5.81238 5.81238 0 0 0 -.43 1.84c-.01.14-.02.29-.02.43h-4a8.01062 8.01062 0 0 0 -8 8v6.02a6.00047 6.00047 0 0 0 .5 11.98h63a6.00047 6.00047 0 0 0 .5-11.98v-6.02c0-.18-.01-.36-.02-.54-.01-.13-.02-.25-.04-.38a7.01552 7.01552 0 0 0 -.13-.8c-.03-.13-.06-.26-.1-.39a11.45307 11.45307 0 0 0 2.37-.39c7.5-2.3 5.09-3.42.92-5.33-4.17-1.92-8.24-2.75-1.5-5.25 6.75-2.5 15.92-4.42 16.42 1.83s-3.17 9.58 1.41 10.83c4.59 1.25 11.67 1.67 9.92 7.92z" fill="#e1ebf4"/><path d="m2.66913 33.56122c1.32721 2.21936 4.4353 7.41736 3.61493 8.43207-4.04022 4.99731.39014 14.64282 6.57306 21.98547 5.41382 6.4295 6.83722 12.7926 6.25366 14.093-.96289 2.14319-2.48981 8.36859-.75635 12.90686a7.49378 7.49378 0 0 0 3.94989 4.32007 47.46167 47.46167 0 0 0 8.33923 2.26331c5.49243 1.18658 13.01526 2.81213 14.75165 5.81958 2.60901 4.51826 7.86511 5.61842 13.26917 5.61842a79.56093 79.56093 0 0 0 8.31775-.57965 40.19154 40.19154 0 0 1 6.03882-.03369c3.69159.16846 6.87726.31207 8.76654-1.78278 1.12311-1.24567 1.49908-2.989 1.149-5.32837-.32477-2.16956 4.05341-3.26483 10.27435-4.57446 5.13892-1.08209 10.45264-2.20081 14.04022-4.86353 2.18024-1.61823 3.21838-3.04846 3.36633-4.637.18555-1.99713-1.14948-3.43909-2.32727-4.71112-1.689-1.82483-3.28479-3.548-2.46246-7.21033 1.01367-4.51245 4.10761-4.88989 9.07263-5.13306 2.73938-.13379 5.57251-.27252 7.62927-1.799 3.43768-2.55139 6.40167-7.87634 5.197-12.03033-.63727-2.19885-2.61633-4.90991-8.42371-5.34064a10.65145 10.65145 0 0 1 -3.51483-.62646 11.40763 11.40763 0 0 1 .3418-1.2735c.6524-2.131 1.63873-5.35132-.71582-9.2832-5.04126-8.4198-15.44556-4.53436-22.33063-1.962l-.81641.3042c-1.91467.71051-2.30969 1.859-2.30432 2.69739.01514 2.18909 2.41516 3.04315 6.39093 4.45776 1.18018.41992 3.06995 1.09235 4.29657 1.68268a23.08414 23.08414 0 0 1 -2.71106.816c-1.01923.25214-1.93768.45428-2.79547.62549a7.93988 7.93988 0 0 1 .85931 3.5871v.31812c.90411-.18158 1.85529-.39 2.89709-.64771 3.39569-.8399 6.555-1.963 6.68-4.47046.1402-2.82434-3.40149-4.08466-7.88556-5.67993-.4649-.16553-1.00641-.35846-1.5426-.5567 7.03064-2.53186 12.97327-3.88837 15.83032.88287 1.44049 2.40588.87213 4.2619.32275 6.05695-.45117 1.47272-.9624 3.14221.0874 4.67749.96832 1.41608 2.88446 2.10651 6.61456 2.38342 1.941.144 4.36255.68848 4.87769 2.4649.6626 2.2843-1.46588 6.0174-3.739 7.70453-1.0816.80225-3.19885.90576-5.44116 1.01563-4.66229.22809-11.04785.54059-12.77936 8.25238-1.28326 5.7132 1.5528 8.77679 3.42981 10.80377a6.8791 6.8791 0 0 1 1.27936 1.62262c-.00049.00537-.09473.55469-1.76715 1.796-2.8844 2.14075-7.9823 3.21405-12.48 4.16138-7.038 1.48151-14.31512 3.01379-13.40686 9.08051a2.98629 2.98629 0 0 1 -.16357 2.05774c-.62506.69189-3.39227.56738-5.61407.46582a43.59926 43.59926 0 0 0 -6.64233.05176c-8.21332.87262-15.21606 1.24176-17.701-3.06116-2.62311-4.54272-10.45795-6.23566-17.37085-7.72943a46.71623 46.71623 0 0 1 -7.557-2.00787 3.49 3.49 0 0 1 -1.8399-2.0929c-1.21149-3.17151-.0127-8.32458.66846-9.84082 1.6441-3.6618-1.42535-11.87457-6.84308-18.308-5.77319-6.85632-8.63806-14.2771-6.52228-16.89441 2.57581-3.18616-.40723-8.17517-3.29211-12.99963-.78619-1.31549-1.52936-2.55774-2.10022-3.67548l1.45758-4.58716c6.49542 8.02435 10.75635 7.94427 13.18909 6.46271a6.14052 6.14052 0 0 0 3.1803-6.01733c-.00244-.169-.00537-.378.00049-.53815a6.73549 6.73549 0 0 1 1.69153-.15283c.58887 0 .91309 0 1.18658 1.9845.02393.17529.04639.33594.07031.47607l1.28766 7.64783a5.776 5.776 0 0 0 5.69165 4.85181 20.79 20.79 0 0 1 9.63422 2.45569 23.66774 23.66774 0 0 0 3.05934 1.3156 5.92744 5.92744 0 0 1 1.307-1.97333l1.38367-1.38367a19.799 19.799 0 0 1 -3.90723-1.509 24.75016 24.75016 0 0 0 -11.47705-2.9054 1.7868 1.7868 0 0 1 -1.7472-1.51623l-1.2876-7.64789c-.01807-.10547-.03418-.22607-.05225-.35742-.18511-1.34525-.74908-5.43869-5.14916-5.43869-2.298 0-3.73456.41748-4.657 1.35309a4.34243 4.34243 0 0 0 -1.03473 3.3952c.0166 1.17236.025 1.7608-1.26074 2.54407-1.42053.86768-4.56226-1.317-7.99988-5.56329a3.96027 3.96027 0 0 0 -6.85673 1.25885l-1.50989 4.59594a4.00968 4.00968 0 0 0 .23541 3.08167c.64014 1.23395 1.41315 2.52697 2.23151 3.89569z" fill="#2d4356"/><path d="m95.5 62h-3.5v-10a4.00529 4.00529 0 0 0 -4-4h-10v-2a1.99856 1.99856 0 0 0 1.42-3.41l-2-2h-.01l-11.99-12a2.00388 2.00388 0 0 0 -2.83 0l-14 14a1.98589 1.98589 0 0 0 -.44 2.18 2.0095 2.0095 0 0 0 1.85 1.23v2h-10a4.00533 4.00533 0 0 0 -4 4v10h-3.5a2 2 0 0 0 0 4h63a2 2 0 0 0 0-4zm-45.5 0h-10v-10h10zm14-29.17 9.17 9.17h-18.34zm2 29.17h-4v-5a2 2 0 0 1 4 0zm8 0h-4v-5a6 6 0 0 0 -12 0v5h-4v-16h20zm14 0h-10v-10h10z" fill="#2d4356"/><path d="m73.17 42h-18.34l9.17-9.17z" fill="#fc785e"/><path d="m78 52h10v10h-10z" fill="#ffdb80"/><path d="m74 46v16h-4v-5a6 6 0 0 0 -12 0v5h-4v-16z" fill="#81d9e3"/><path d="m40 52h10v10h-10z" fill="#ffdb80"/><path d="m87 74a5.996 5.996 0 0 0 -2 11.65v4.35a2 2 0 0 0 4 0v-4.35a5.996 5.996 0 0 0 -2-11.65zm0 8a2 2 0 1 1 2-2 1.99947 1.99947 0 0 1 -2 2z" fill="#2d4356"/><path d="m89 80a2 2 0 1 1 -2-2 1.99311 1.99311 0 0 1 2 2z" fill="#fc785e"/><path d="m21 37a5.996 5.996 0 0 0 -2 11.65v4.35a2 2 0 0 0 4 0v-4.35a5.996 5.996 0 0 0 -2-11.65zm0 8a2 2 0 1 1 2-2 2.00591 2.00591 0 0 1 -2 2z" fill="#2d4356"/><circle cx="21" cy="43" fill="#fc785e" r="2"/><path d="m37 73a5.996 5.996 0 0 0 -2 11.65v4.35a2 2 0 0 0 4 0v-4.35a5.996 5.996 0 0 0 -2-11.65zm0 8a2 2 0 1 1 2-2 1.99947 1.99947 0 0 1 -2 2z" fill="#2d4356"/><path d="m39 79a2 2 0 1 1 -2-2 1.99943 1.99943 0 0 1 2 2z" fill="#fc785e"/><g fill="#fff"><path d="m41.39 40.42a24.42 24.42 0 0 0 3.06 1.31 5.81238 5.81238 0 0 0 -.43 1.84 22.925 22.925 0 0 1 -2.63-1.15 20.78879 20.78879 0 0 0 -9.63-2.46 5.76581 5.76581 0 0 1 -5.69-4.85l-1.29-7.65c-.03-.14-.05-.3-.07-.48-.28-1.98-.6-1.98-1.19-1.98a7.10543 7.10543 0 0 0 -1.69.15c-.01.16 0 .37 0 .54a6.142 6.142 0 0 1 -3.18 6.02c-2.43 1.48-6.69 1.56-13.19-6.46l-1.06 3.33c-.14-.26-.28-.51-.4-.75l1.46-4.58c6.5 8.02 10.76 7.94 13.19 6.46a6.142 6.142 0 0 0 3.18-6.02c0-.17-.01-.38 0-.54a7.10543 7.10543 0 0 1 1.69-.15c.59 0 .91 0 1.19 1.98.02.18.04.34.07.48l1.29 7.65a5.76581 5.76581 0 0 0 5.69 4.85 20.78879 20.78879 0 0 1 9.63 2.46z" opacity=".5"/><path d="m112.8 45.95a6.06529 6.06529 0 0 0 -.81995-2.1c-2.46-4.11-7.21-3.68-12.98-1.86-.42-.15-.86-.31-1.31-.47-.46-.16-1-.36-1.54-.56 7.03-2.53 12.98-3.88 15.83.89a5.723 5.723 0 0 1 .81995 4.1z" opacity=".5"/><path d="m105.58 49.2c-.12 2.51-3.28 3.63-6.68 4.47-1.04.26-1.99.47-2.9.65v-2c.91-.18 1.86-.39 2.9-.65 2.99-.74 5.79-1.69 6.51-3.61a2.84419 2.84419 0 0 1 .17 1.14z" opacity=".5"/></g><path d="m78.82 103.93c-.63.69-3.4.56-5.62.46a43.53351 43.53351 0 0 0 -6.64.05c-8.21.88-15.22 1.24-17.7-3.06-2.62-4.54-10.46-6.23-17.37-7.73a46.73865 46.73865 0 0 1 -7.56-2.01 3.507 3.507 0 0 1 -1.84-2.09 11.05271 11.05271 0 0 1 -.49-4.4 8.59181 8.59181 0 0 0 .49 2.4 3.507 3.507 0 0 0 1.84 2.09 46.73865 46.73865 0 0 0 7.56 2.01c6.91 1.5 14.75 3.19 17.37 7.73 2.48 4.3 9.49005 3.94 17.7 3.06a43.53351 43.53351 0 0 1 6.64-.05c2.22.1 4.99.23 5.62-.46a.56983.56983 0 0 0 .13-.27l.03.21a3.04255 3.04255 0 0 1 -.16 2.06z" fill="#9fa5aa" opacity=".5"/><path d="m106.63 86.83s-.09.55-1.76 1.8c-2.89 2.14-7.99 3.21-12.48 4.16-6.22 1.31-12.62 2.66-13.41 7.12v-.04c-.91-6.07 6.37-7.6 13.41-9.08 4.49-.95 9.59-2.02 12.48-4.16.43-.33.76-.61 1.01-.84a3.50814 3.50814 0 0 1 .75 1.04z" fill="#9fa5aa" opacity=".5"/><path d="m120.15 65.14c-1.09.8-3.2.9-5.45 1.00995-4.66.23-11.04.54-12.77 8.25a13.05991 13.05991 0 0 0 -.28 1.74005 11.84942 11.84942 0 0 1 .28-3.74c1.73-7.71 8.11-8.02 12.77-8.25 2.25-.11 4.36-.21 5.45-1.00995a10.64654 10.64654 0 0 0 3.73-5.7c.66 2.27995-1.46 6.00995-3.73 7.69995z" fill="#9fa5aa" opacity=".5"/><path d="m54 60h4v2h-4z" fill="#0f423c" opacity=".3"/><path d="m70 60h4v2h-4z" fill="#0f423c" opacity=".3"/><path d="m78 60h10v2h-10z" fill="#ad9359" opacity=".45"/><path d="m40 60h10v2h-10z" fill="#ad9359" opacity=".45"/><path d="m40 52h10v2h-10z" fill="#f9edd2" opacity=".5"/><path d="m73.17 42h-2l-7.17-7.17-7.17 7.17h-2l9.17-9.17z" fill="#f9dbd7" opacity=".3"/><path d="m78 52h10v2h-10z" fill="#f9edd2" opacity=".5"/></svg>