<svg enable-background="new 0 0 64 64" height="512" viewBox="0 0 64 64" width="512" xmlns="http://www.w3.org/2000/svg"><g id="VIETNAM"><g><path d="m47.938 18.177c0 8.802-15.938 38.291-15.938 38.291s-15.938-29.489-15.938-38.291c0-8.803 7.136-15.938 15.938-15.938s15.938 7.135 15.938 15.938z" fill="#cce4f6"/><path d="m32 5.28c-7.198 0-13.028 5.831-13.028 13.029s5.83 13.028 13.028 13.028c7.197 0 13.027-5.83 13.027-13.028s-5.83-13.029-13.027-13.029zm7.794 11.599-4.566 3.321 1.993 6.135-.004-.002-5.217-3.793-1.896 1.376-3.317 2.419.001-.006-.004.004 1.338-4.125.649-2.008-4.186-3.044-1.027-.746h.001v-.001h6.448l1.993-6.136v.002l2 6.134h6.44l-.001.001h.001z" fill="#c8202c"/><path d="m33.997 16.41-1.997-6.134v-.003l-1.992 6.136v.001h-6.448-.001l1.027.746 4.189 3.041-.653 2.011-1.338 4.125.004-.004 3.316-2.413 1.896-1.376 5.217 3.793-1.993-6.136 4.57-3.318.646-.469h-.001z" fill="#f4eb33"/><path d="m32 3.717c-8.046 0-14.591 6.545-14.591 14.592 0 8.045 6.545 14.59 14.591 14.59 8.045 0 14.591-6.545 14.591-14.59 0-8.046-6.546-14.592-14.591-14.592zm0 27.62c-7.198 0-13.028-5.83-13.028-13.028s5.83-13.029 13.028-13.029c7.197 0 13.027 5.831 13.027 13.029s-5.83 13.028-13.027 13.028z" fill="#88bfdd"/><ellipse cx="32" cy="59.764" fill="#cce4f6" rx="10.946" ry="1.997"/></g></g></svg>